<?xml version="1.0" encoding="UTF-8" standalone="no"?>
<svg xmlns:rdf="http://www.w3.org/1999/02/22-rdf-syntax-ns#" xmlns="http://www.w3.org/2000/svg" height="25.353mm" width="73.359mm" version="1.1" xmlns:cc="http://creativecommons.org/ns#" xmlns:dc="http://purl.org/dc/elements/1.1/" viewBox="0 0 259.9319 89.832723">
 <path d="m44.861.0011778c-17.469-.13274-34.34 10.894-41.145 26.999-7.2324 16.1-3.6713 36.215 8.6279 48.874 12.016 12.917 31.927 17.494 48.374 11.085 16.856-6.1288 28.935-23.161 29.058-41.108.60498-17.785-10.573-35.175-26.96-42.093-5.6561-2.4615-11.792-3.6966-17.957-3.753z" style="color-rendering:auto;color:#000000;isolation:auto;mix-blend-mode:normal;shape-rendering:auto;solid-color:#000000;image-rendering:auto;stroke-width:0;fill:#00ae41"/>
 <g style="fill:#31343d" transform="matrix(.043442 .003549 -.003549 .043442 16.891 21.641)">
  <path d="m465 950c-3-5 17-83 45-172 29-90 65-203 80-253 128-405 154-483 166-502 13-20 23-23 83-23 46 0 70 4 73 13 7 17-271 908-290 930-11 13-31 17-83 17-37 0-71-4-74-10z" style="fill:#31343d"/>
  <path d="m255 788c-27-17-75-45-105-61-30-17-73-42-95-56l-40-27-3-91-3-91 33-25c45-32 463-267 477-267 15 0 15 1-15 101-15 49-36 97-48 108s-77 52-146 91-129 75-133 79 33 31 83 60c49 29 94 60 99 69 11 21-25 142-42 142-7 0-34-15-62-32z" style="fill:#31343d"/>
  <path d="m840 803c0-30 56-180 73-197 12-12 79-55 150-95 70-40 127-76 127-79 0-4-24-20-53-36-94-53-137-86-137-107 0-27 30-118 42-125 10-6 273 141 300 169 26 25 26 177 1 199-34 29-474 278-492 278-6 0-11-3-11-7z" style="fill:#31343d"/>
 </g>
 <path d="m111.65 70.559v-51.369h10.78v41.818h20.981v9.5504h-31.761z" style="fill:#31343d"/>
 <path d="m163.88 71.631q-4.0516 0-7.3797-1.3023-3.2557-1.3023-5.571-3.6899-2.2428-2.3875-3.111-5.6433l9.1162-1.9534q.7235 2.2428 2.6046 3.5452 1.8812 1.3023 4.4857 1.3023 2.4599 0 4.0516-1.0852t1.5917-2.9664q0-1.5917-1.447-2.6046-1.3747-1.0852-4.6304-1.6641l-2.0258-.36175q-6.2221-1.0852-9.4778-4.0516-3.1834-2.9664-3.1834-7.5244 0-3.6175 1.8812-6.3668 1.8811-2.8217 5.2092-4.4133 3.3281-1.5917 7.6691-1.5917 3.8346 0 6.9456 1.3023 3.1834 1.23 5.2816 3.5451 2.0981 2.3152 2.894 5.571l-9.0438 1.8811q-.7235-2.1705-2.3875-3.4004-1.5917-1.23-3.7622-1.23-2.2428 0-3.6899 1.0852-1.447 1.0852-1.447 2.7493 0 1.447 1.3747 2.4599 1.447.94055 4.8475 1.5194l2.0258.36175q6.1498 1.0852 9.4055 4.124 3.2557 2.9664 3.2557 7.5968 0 2.8217-1.1576 5.1369-1.0852 2.3152-3.1834 4.0516-2.0981 1.7364-4.9198 2.677-2.8217.94055-6.2221.94055z" style="fill:#31343d"/>
 <path d="m203.99 71.631q-4.2687 0-7.8862-1.5194t-6.2945-4.1963q-2.677-2.7493-4.1963-6.4392-1.447-3.6899-1.447-8.0309t1.5194-7.9586q1.5194-3.6899 4.1963-6.4392 2.7493-2.7493 6.3668-4.2687 3.6899-1.5194 8.0309-1.5194 4.2687 0 7.8862 1.5194t6.2945 4.2687q2.677 2.677 4.124 6.3668 1.5194 3.6175 1.5194 7.9586 0 4.341-1.5194 8.0309t-4.2687 6.4392q-2.677 2.7493-6.3668 4.2687-3.6175 1.5194-7.9586 1.5194zm.1447-9.1162q2.7493 0 4.9198-1.447t3.4004-3.9069q1.3023-2.5323 1.3023-5.7156 0-3.1834-1.3023-5.6433-1.23-2.5323-3.4004-3.9793-2.1705-1.447-4.9198-1.447t-4.9198 1.447-3.4728 3.9793q-1.23 2.4599-1.23 5.6433t1.23 5.7156q1.3023 2.4599 3.4728 3.9069t4.9198 1.447z" style="fill:#31343d"/>
 <path d="m244.45 71.631q-4.0516 0-7.3797-1.3023-3.2557-1.3023-5.571-3.6899-2.2428-2.3875-3.111-5.6433l9.1161-1.9534q.72351 2.2428 2.6046 3.5452 1.881 1.3023 4.4857 1.3023 2.4599 0 4.0516-1.0852t1.5917-2.9664q0-1.5917-1.447-2.6046-1.3747-1.0852-4.6304-1.6641l-2.0258-.36175q-6.2221-1.0852-9.4778-4.0516-3.1834-2.9664-3.1834-7.5244 0-3.6175 1.8811-6.3668 1.8811-2.8217 5.2092-4.4133 3.3281-1.5917 7.6691-1.5917 3.8346 0 6.9456 1.3023 3.1834 1.23 5.2816 3.5451 2.0981 2.3152 2.894 5.571l-9.0438 1.8811q-.7235-2.1705-2.3875-3.4004-1.5917-1.23-3.7622-1.23-2.2428 0-3.6898 1.0852t-1.447 2.7493q0 1.447 1.3747 2.4599 1.447.94055 4.8475 1.5194l2.0258.36175q6.1498 1.0852 9.4055 4.124 3.2557 2.9664 3.2557 7.5968 0 2.8217-1.1576 5.1369-1.0852 2.3152-3.1834 4.0516-2.0981 1.7364-4.9198 2.677-2.8217.94055-6.2221.94055z" style="fill:#31343d"/>
</svg>
