<?xml version="1.0" encoding="utf-8"?>
<svg version="1.1" id="Слой_1" xmlns="http://www.w3.org/2000/svg" xmlns:xlink="http://www.w3.org/1999/xlink" x="0px" y="0px"
	 viewBox="0 0 67.2 60.9" style="enable-background:new 0 0 67.2 60.9;" xml:space="preserve">
<style type="text/css">
	.st0{filter:url(#Adobe_OpacityMaskFilter);}
	.st1{fill-rule:evenodd;clip-rule:evenodd;fill:#FFFFFF;}
	.st2{mask:url(#mask-2_2_);fill-rule:evenodd;clip-rule:evenodd;fill:#fe5000;}
</style>
<g id="Group-28">
	<g id="Group-3">
		<g id="Clip-2">
		</g>
		<defs>
			<filter id="Adobe_OpacityMaskFilter" filterUnits="userSpaceOnUse" x="0" y="0" width="67.2" height="60.9">
				<feColorMatrix  type="matrix" values="1 0 0 0 0  0 1 0 0 0  0 0 1 0 0  0 0 0 1 0"/>
			</filter>
		</defs>
		<mask maskUnits="userSpaceOnUse" x="0" y="0" width="67.2" height="60.9" id="mask-2_2_">
			<g class="st0">
				<polygon id="path-1_2_" class="st1" points="0,0 67.2,0 67.2,60.9 0,60.9 				"/>
			</g>
		</mask>
		<path id="Fill-1" class="st2" d="M36,60.9H21.1c-3.1,0-5.9-1.7-7.5-4.3L1.1,34.8c-1.5-2.7-1.5-6,0-8.7L13.7,4.3
			C15.2,1.7,18,0,21.1,0h25c3.1,0,5.9,1.7,7.5,4.3l12.5,21.8c1.5,2.7,1.5,6,0,8.7L62.9,40c-1.5,2.6-4.4,4.3-7.4,4.3H40.5l8.1-13.8
			l-7.5-13.1H26.1l-7.5,13.1L36,60.9z"/>
	</g>
</g>
</svg>
