<?xml version="1.0" encoding="UTF-8" standalone="no"?>
<svg xmlns:rdf="http://www.w3.org/1999/02/22-rdf-syntax-ns#" xmlns="http://www.w3.org/2000/svg" height="187.09" width="187.02" version="1.1" xmlns:cc="http://creativecommons.org/ns#" xmlns:dc="http://purl.org/dc/elements/1.1/" viewBox="0 0 187.02399 187.09277">
 <path style="color-rendering:auto;color:#000000;isolation:auto;mix-blend-mode:normal;shape-rendering:auto;solid-color:#000000;image-rendering:auto;stroke-width:0;fill:#00ae41" d="m93.43.0024742c-36.383-.27647-71.523 22.69-85.691 56.232-15.063 33.533-7.6459 75.426 17.97 101.79 25.026 26.903 66.496 36.436 100.75 23.086 35.107-12.765 60.265-48.238 60.52-85.619 1.26-37.041-22.02-73.258-56.15-87.668-11.78-5.1267-24.56-7.699-37.4-7.8165z"/>
 <g style="fill:#31343d" transform="matrix(.090475 .0073916 -.0073916 .090475 35.158 45.039)">
  <path style="fill:#31343d" d="m465 950c-3-5 17-83 45-172 29-90 65-203 80-253 128-405 154-483 166-502 13-20 23-23 83-23 46 0 70 4 73 13 7 17-271 908-290 930-11 13-31 17-83 17-37 0-71-4-74-10z"/>
  <path style="fill:#31343d" d="m255 788c-27-17-75-45-105-61-30-17-73-42-95-56l-40-27-3-91-3-91 33-25c45-32 463-267 477-267 15 0 15 1-15 101-15 49-36 97-48 108s-77 52-146 91-129 75-133 79 33 31 83 60c49 29 94 60 99 69 11 21-25 142-42 142-7 0-34-15-62-32z"/>
  <path style="fill:#31343d" d="m840 803c0-30 56-180 73-197 12-12 79-55 150-95 70-40 127-76 127-79 0-4-24-20-53-36-94-53-137-86-137-107 0-27 30-118 42-125 10-6 273 141 300 169 26 25 26 177 1 199-34 29-474 278-492 278-6 0-11-3-11-7z"/>
 </g>
</svg>
