<?xml version="1.0" encoding="UTF-8" standalone="no"?>
<svg xmlns:rdf="http://www.w3.org/1999/02/22-rdf-syntax-ns#" xmlns="http://www.w3.org/2000/svg" height="5.6354mm" width="155.42mm" version="1.1" xmlns:cc="http://creativecommons.org/ns#" xmlns:dc="http://purl.org/dc/elements/1.1/" viewBox="0 0 550.68583 19.968314">
 <rect style="color-rendering:auto;color:#000000;isolation:auto;mix-blend-mode:normal;shape-rendering:auto;solid-color:#000000;stroke:#31343d;image-rendering:auto;stroke-width:.1;fill:#f2f2f2" rx="3.1876" ry="3.2163" height="19.864" width="543.78" y=".054313" x="6.8558"/>
 <g transform="translate(-253.31 -183.93)">
  <path d="m315.88 188.04h3.277q2.309 0 3.3405.69031 1.0315.6903 1.0315 2.182 0 1.0315-.57922 1.7059-.57129.6665-1.6742.86486v.0794q2.6422.45227 2.6422 2.7771 0 1.5552-1.0553 2.428-1.0474.8728-2.9358.8728h-4.0466v-11.6zm1.3489 4.967h2.2217q1.4282 0 2.055-.44434.62684-.45227.62684-1.5155 0-.97595-.69825-1.4044-.69824-.4364-2.2217-.4364h-1.9836v3.8007zm0 1.1426v4.3402h2.42q1.4044 0 2.1106-.53955.71411-.54749.71411-1.7059 0-1.0791-.72998-1.5869-.72204-.50781-2.2058-.50781h-2.309z"/>
  <path d="m331.56 199.64-.26184-1.2378h-.0635q-.65063.81726-1.3013 1.1108-.6427.28564-1.6107.28564-1.2933 0-2.0312-.6665-.72998-.66651-.72998-1.8964 0-2.6343 4.2133-2.7612l1.4758-.0476v-.53955q0-1.0236-.44433-1.5076-.43641-.49194-1.4044-.49194-1.087 0-2.4597.6665l-.40466-1.0077q.6427-.34912 1.4044-.54749.76965-.19836 1.5393-.19836 1.5552 0 2.301.69031.75378.69031.75378 2.2137v5.9351h-.97595zm-2.9755-.92834q1.2298 0 1.9281-.67444.70617-.67444.70617-1.8884v-.78552l-1.3171.0555q-1.571.0555-2.2693.49194-.69031.42847-.69031 1.341 0 .71411.42847 1.087.4364.37293 1.214.37293z"/>
  <path d="m340.87 197.27q0 1.214-.90454 1.8726-.90454.65857-2.5391.65857-1.7297 0-2.6978-.54748v-1.2219q.62683.31739 1.341.49988.72204.1825 1.3886.1825 1.0315 0 1.5869-.32532.55542-.33325.55542-1.0077 0-.50781-.44434-.86487-.4364-.36499-1.7139-.85693-1.214-.45227-1.7297-.78553-.50781-.34118-.76172-.76965-.24597-.42847-.24597-1.0236 0-1.0632.86487-1.6742.86487-.6189 2.3724-.6189 1.4044 0 2.7454.57129l-.46814 1.0712q-1.3092-.53955-2.3724-.53955-.93628 0-1.4124.29358-.47608.29357-.47608.80932 0 .34912.17456.59509.1825.24598.57923.46814.39672.22217 1.5234.6427 1.5472.56336 2.0868 1.1346.54748.57129.54748 1.4362z"/>
  <path d="m344.32 199.64h-1.3171v-8.6963h1.3171v8.6963zm-1.4282-11.053q0-.45227.22216-.65856.22217-.21424.55542-.21424.31739 0 .54749.21424.2301.21423.2301.65856 0 .44434-.2301.66651-.2301.21423-.54749.21423-.33325 0-.55542-.21423-.22216-.22217-.22216-.66651z"/>
  <path d="m350.61 199.8q-1.8884 0-2.9279-1.1584-1.0315-1.1664-1.0315-3.2928 0-2.182 1.0474-3.3722 1.0553-1.1902 2.9993-1.1902.62683 0 1.2537.13489.62683.13489.98389.31738l-.40467 1.1188q-.4364-.17456-.95214-.28565-.51575-.11902-.91248-.11902-2.6502 0-2.6502 3.3801 0 1.6028.6427 2.4597.65064.85693 1.9202.85693 1.087 0 2.2296-.46814v1.1664q-.8728.45227-2.1979.45227z"/>
 </g>
 <g transform="matrix(.67756 0 0 .67756 -186.43 -63.316)">
  <path style="color-rendering:auto;color:#000000;isolation:auto;mix-blend-mode:normal;shape-rendering:auto;solid-color:#000000;image-rendering:auto;stroke-width:0;fill:#00ae41" d="m289.85 93.447c-5.727-.04352-11.258 3.5716-13.489 8.8515-2.3711 5.2784-1.2036 11.873 2.8286 16.023 3.9393 4.2348 10.467 5.7354 15.859 3.634 5.5262-2.0093 9.4863-7.5931 9.5264-13.477.19834-5.8306-3.4662-11.532-8.8386-13.8-1.8543-.80699-3.866-1.2119-5.8871-1.2304z"/>
  <g style="fill:#31343d" transform="matrix(.014242 .0011635 -.0011635 .014242 280.68 100.54)">
   <path style="fill:#31343d" d="m465 950c-3-5 17-83 45-172 29-90 65-203 80-253 128-405 154-483 166-502 13-20 23-23 83-23 46 0 70 4 73 13 7 17-271 908-290 930-11 13-31 17-83 17-37 0-71-4-74-10z"/>
   <path style="fill:#31343d" d="m255 788c-27-17-75-45-105-61-30-17-73-42-95-56l-40-27-3-91-3-91 33-25c45-32 463-267 477-267 15 0 15 1-15 101-15 49-36 97-48 108s-77 52-146 91-129 75-133 79 33 31 83 60c49 29 94 60 99 69 11 21-25 142-42 142-7 0-34-15-62-32z"/>
   <path style="fill:#31343d" d="m840 803c0-30 56-180 73-197 12-12 79-55 150-95 70-40 127-76 127-79 0-4-24-20-53-36-94-53-137-86-137-107 0-27 30-118 42-125 10-6 273 141 300 169 26 25 26 177 1 199-34 29-474 278-492 278-6 0-11-3-11-7z"/>
  </g>
 </g>
 <g transform="translate(-253.31 -183.93)">
  <path d="m277.49 199.56v-11.538h2.4212v9.3925h4.7125v2.145h-7.1338z"/>
  <path d="m289.22 199.8q-.91 0-1.6575-.2925-.73125-.2925-1.2512-.82875-.50375-.53625-.69875-1.2675l2.0475-.43875q.1625.50375.585.79625t1.0075.2925q.5525 0 .91-.24375t.3575-.66625q0-.3575-.325-.585-.30875-.24375-1.04-.37375l-.455-.0812q-1.3975-.24375-2.1288-.91-.715-.66625-.715-1.69 0-.8125.4225-1.43.4225-.63375 1.17-.99125t1.7225-.3575q.86125 0 1.56.2925.715.27625 1.1862.79625.47125.52.65 1.2512l-2.0312.4225q-.1625-.4875-.53625-.76375-.3575-.27625-.845-.27625-.50375 0-.82875.24375t-.325.6175q0 .325.30875.5525.325.21125 1.0888.34125l.455.0812q1.3812.24375 2.1125.92625.73125.66625.73125 1.7062 0 .63375-.26 1.1538-.24375.52-.715.91t-1.105.60125-1.3975.21125z"/>
  <path d="m298.23 199.8q-.95875 0-1.7712-.34125-.8125-.34125-1.4138-.9425-.60125-.6175-.9425-1.4462-.325-.82875-.325-1.8038 0-.975.34125-1.7875.34125-.82875.9425-1.4462.6175-.6175 1.43-.95875.82875-.34125 1.8038-.34125.95875 0 1.7712.34125.8125.34125 1.4138.95875.60125.60125.92625 1.43.34125.8125.34125 1.7875t-.34125 1.8038q-.34125.82875-.95875 1.4462-.60125.6175-1.43.95875-.8125.34125-1.7875.34125zm.0325-2.0475q.6175 0 1.105-.325t.76375-.8775q.2925-.56875.2925-1.2838 0-.715-.2925-1.2675-.27625-.56875-.76375-.89375t-1.105-.325-1.105.325-.78.89375q-.27625.5525-.27625 1.2675t.27625 1.2838q.2925.5525.78.8775t1.105.325z"/>
  <path d="m307.31 199.8q-.91 0-1.6575-.2925-.73125-.2925-1.2512-.82875-.50375-.53625-.69875-1.2675l2.0475-.43875q.1625.50375.585.79625t1.0075.2925q.5525 0 .91-.24375t.3575-.66625q0-.3575-.325-.585-.30875-.24375-1.04-.37375l-.455-.0812q-1.3975-.24375-2.1288-.91-.715-.66625-.715-1.69 0-.8125.4225-1.43.4225-.63375 1.17-.99125t1.7225-.3575q.86125 0 1.56.2925.715.27625 1.1862.79625.47125.52.65 1.2512l-2.0312.4225q-.1625-.4875-.53625-.76375-.3575-.27625-.845-.27625-.50375 0-.82875.24375t-.325.6175q0 .325.30875.5525.325.21125 1.0888.34125l.455.0812q1.3812.24375 2.1125.92625.73125.66625.73125 1.7062 0 .63375-.26 1.1538-.24375.52-.715.91t-1.105.60125-1.3975.21125z"/>
 </g>
 <g transform="translate(-253.31 -184.18)">
  <path d="m515.99 199.65h-1.2451v-10.708h5.9692v1.106h-4.7241v3.9184h4.4385v1.106h-4.4385v4.5776z"/>
  <path d="m525.96 191.48q.53467 0 .95947.0879l-.16846 1.1279q-.49804-.10986-.8789-.10986-.97412 0-1.6699.79101-.68848.79102-.68848 1.9702v4.3066h-1.2158v-8.0274h1.0034l.13916 1.4868h.0586q.44678-.78369 1.0767-1.2085.62988-.4248 1.3843-.4248z"/>
  <path d="m531.81 199.8q-1.7798 0-2.8125-1.084-1.0254-1.084-1.0254-3.0103 0-1.9409.95215-3.0835.95947-1.1426 2.5708-1.1426 1.5088 0 2.3877.99609.87891.98877.87891 2.6148v.76904h-5.5298q.0366 1.4136.71045 2.146.68115.73242 1.9116.73242 1.2964 0 2.5635-.54199v1.084q-.64453.27832-1.2231.39551-.57129.12451-1.3843.12451zm-.32959-7.3022q-.9668 0-1.5454.62988-.57129.62988-.67383 1.7432h4.1968q0-1.1499-.5127-1.7578-.51269-.61523-1.4648-.61523z"/>
  <path d="m540.22 199.8q-1.7798 0-2.8125-1.084-1.0254-1.084-1.0254-3.0103 0-1.9409.95215-3.0835.95947-1.1426 2.5708-1.1426 1.5088 0 2.3877.99609.8789.98877.8789 2.6148v.76904h-5.5298q.0366 1.4136.71045 2.146.68115.73242 1.9116.73242 1.2964 0 2.5635-.54199v1.084q-.64453.27832-1.2231.39551-.57129.12451-1.3843.12451zm-.32959-7.3022q-.9668 0-1.5454.62988-.57129.62988-.67383 1.7432h4.1968q0-1.1499-.51269-1.7578-.5127-.61523-1.4648-.61523z"/>
  <path d="m552.75 192.57h-2.0435v7.0825h-1.2158v-7.0825h-1.4355v-.54932l1.4355-.43945v-.44678q0-2.959 2.5854-2.959.63721 0 1.4941.25635l-.31494.97412q-.70312-.22705-1.2012-.22705-.68848 0-1.0181.46142-.32959.4541-.32959 1.4648v.52002h2.0435v.94483z"/>
  <path d="m561.16 195.63q0 1.9629-.98877 3.0688-.98877 1.0986-2.7319 1.0986-1.0767 0-1.9116-.50537-.83496-.50537-1.2891-1.4502-.45411-.94483-.45411-2.2119 0-1.9629.98145-3.0542.98145-1.0986 2.7246-1.0986 1.6846 0 2.6733 1.1206.99609 1.1206.99609 3.0322zm-6.1157 0q0 1.5381.61523 2.3438.61524.80567 1.8091.80567 1.1938 0 1.8091-.79834.62256-.80567.62256-2.3511 0-1.5308-.62256-2.3218-.61524-.79834-1.8237-.79834-1.1938 0-1.8018.7837-.60791.78369-.60791 2.3364z"/>
  <path d="m566.95 191.48q.53466 0 .95947.0879l-.16846 1.1279q-.49805-.10986-.8789-.10986-.97413 0-1.6699.79101-.68847.79102-.68847 1.9702v4.3066h-1.2158v-8.0274h1.0034l.13916 1.4868h.0586q.44678-.78369 1.0767-1.2085.62988-.4248 1.3843-.4248z"/>
  <path d="m583.54 199.65v-5.2222q0-.95947-.41016-1.4356-.41015-.4834-1.2744-.4834-1.1352 0-1.6772.65186-.54199.65186-.54199 2.0068v4.4824h-1.2158v-5.2222q0-.95947-.41015-1.4356-.41016-.4834-1.2817-.4834-1.1426 0-1.6772.68848-.52734.68115-.52734 2.2412v4.2114h-1.2158v-8.0274h.98877l.19775 1.0986h.0586q.34424-.58594.9668-.91553.62988-.32959 1.4062-.32959 1.8823 0 2.4609 1.3623h.0586q.35889-.62988 1.04-.99609.68115-.36621 1.5527-.36621 1.3623 0 2.0361.70313.68115.6958.68115 2.2339v5.2368h-1.2158z"/>
  <path d="m594.18 195.63q0 1.9629-.98877 3.0688-.98877 1.0986-2.7319 1.0986-1.0767 0-1.9116-.50537-.83496-.50537-1.2891-1.4502-.4541-.94483-.4541-2.2119 0-1.9629.98145-3.0542.98144-1.0986 2.7246-1.0986 1.6846 0 2.6733 1.1206.99609 1.1206.99609 3.0322zm-6.1157 0q0 1.5381.61523 2.3438.61524.80567 1.8091.80567 1.1938 0 1.8091-.79834.62256-.80567.62256-2.3511 0-1.5308-.62256-2.3218-.61524-.79834-1.8237-.79834-1.1938 0-1.8018.7837-.60791.78369-.60791 2.3364z"/>
  <path d="m601.48 197.46q0 1.1206-.83496 1.7285-.83496.60791-2.3438.60791-1.5967 0-2.4902-.50537v-1.1279q.57862.29297 1.2378.46143.66651.16845 1.2817.16845.95215 0 1.4648-.30029.51269-.30762.51269-.93017 0-.46875-.41015-.79834-.40284-.33692-1.582-.79102-1.1206-.41748-1.5967-.7251-.46875-.31494-.70312-.71045-.22705-.3955-.22705-.94482 0-.98145.79834-1.5454.79834-.57129 2.1899-.57129 1.2964 0 2.5342.52734l-.43213.98877q-1.2085-.49804-2.1899-.49804-.86426 0-1.3037.27099-.43945.271-.43945.74707 0 .32227.16113.54932.16846.22705.53467.43213t1.4062.59326q1.4282.52002 1.9263 1.0474.50537.52735.50537 1.3257z"/>
  <path d="m606.05 198.8q.32226 0 .62255-.0439.3003-.0513.47608-.10254v.93018q-.19776.0952-.58594.1538-.38086.0659-.68848.0659-2.3291 0-2.3291-2.4536v-4.7754h-1.1499v-.58594l1.1499-.50537.5127-1.7139h.70312v1.8604h2.3291v.94483h-2.3291v4.7241q0 .7251.34424 1.1133.34424.38818.94483.38818z"/>
  <path d="m613.79 191.63v5.2075q0 .98145.44678 1.4648.44677.4834 1.3989.4834 1.2598 0 1.8384-.68848.58594-.68848.58594-2.2485v-4.2188h1.2158v8.0274h-1.0034l-.17578-1.0767h-.0659q-.37353.59326-1.04.9082-.65918.31494-1.5088.31494-1.4648 0-2.1973-.6958-.7251-.6958-.7251-2.2266v-5.2515h1.2305z"/>
  <path d="m627.03 197.46q0 1.1206-.83496 1.7285-.83496.60791-2.3438.60791-1.5967 0-2.4902-.50537v-1.1279q.57861.29297 1.2378.46143.6665.16845 1.2817.16845.95215 0 1.4648-.30029.5127-.30762.5127-.93017 0-.46875-.41016-.79834-.40283-.33692-1.582-.79102-1.1206-.41748-1.5967-.7251-.46875-.31494-.70313-.71045-.22705-.3955-.22705-.94482 0-.98145.79834-1.5454.79834-.57129 2.19-.57129 1.2964 0 2.5342.52734l-.43213.98877q-1.2085-.49804-2.19-.49804-.86425 0-1.3037.27099-.43945.271-.43945.74707 0 .32227.16113.54932.16846.22705.53467.43213t1.4062.59326q1.4282.52002 1.9263 1.0474.50537.52735.50537 1.3257z"/>
  <path d="m632.39 199.8q-1.7798 0-2.8125-1.084-1.0254-1.084-1.0254-3.0103 0-1.9409.95215-3.0835.95947-1.1426 2.5708-1.1426 1.5088 0 2.3877.99609.87891.98877.87891 2.6148v.76904h-5.5298q.0366 1.4136.71044 2.146.68116.73242 1.9116.73242 1.2964 0 2.5635-.54199v1.084q-.64453.27832-1.2231.39551-.57129.12451-1.3843.12451zm-.32959-7.3022q-.9668 0-1.5454.62988-.57129.62988-.67383 1.7432h4.1968q0-1.1499-.5127-1.7578-.51269-.61523-1.4648-.61523z"/>
  <path d="m641.07 191.48q.53467 0 .95947.0879l-.16845 1.1279q-.49805-.10986-.87891-.10986-.97412 0-1.6699.79101-.68848.79102-.68848 1.9702v4.3066h-1.2158v-8.0274h1.0034l.13916 1.4868h.0586q.44678-.78369 1.0767-1.2085.62988-.4248 1.3843-.4248z"/>
  <path d="m648.71 197.46q0 1.1206-.83496 1.7285-.83496.60791-2.3438.60791-1.5967 0-2.4902-.50537v-1.1279q.57862.29297 1.2378.46143.6665.16845 1.2817.16845.95214 0 1.4648-.30029.51269-.30762.51269-.93017 0-.46875-.41015-.79834-.40283-.33692-1.582-.79102-1.1206-.41748-1.5967-.7251-.46875-.31494-.70313-.71045-.22705-.3955-.22705-.94482 0-.98145.79834-1.5454.79834-.57129 2.1899-.57129 1.2964 0 2.5342.52734l-.43213.98877q-1.2085-.49804-2.1899-.49804-.86426 0-1.3037.27099-.43945.271-.43945.74707 0 .32227.16113.54932.16846.22705.53467.43213t1.4062.59326q1.4282.52002 1.9263 1.0474.50537.52735.50537 1.3257z"/>
 </g>
 <path style="fill:#00ae41;image-rendering:optimizeQuality;shape-rendering:geometricPrecision" d="m246.29 12.694 7.2168-7.239c1.2028-1.2028 3.0515.64595 1.8487 1.8487l-8.1523 8.1523c-.5123.5123-1.3364.5123-1.8487 0l-2.9847-3.007c-1.2028-1.2028.62368-3.0515 1.8487-1.8265l2.0715 2.0715z"/>
 <g transform="translate(-253.31 -184.18)">
  <path d="m395.41 199.65-3.6328-9.4922h-.0586q.10254 1.1279.10254 2.6807v6.8115h-1.1499v-10.708h1.875l3.3911 8.833h.0586l3.4204-8.833h1.8604v10.708h-1.2451v-6.8994q0-1.1865.10254-2.5781h-.0586l-3.6621 9.4775h-1.0034z"/>
  <path d="m404.21 199.65v-10.708h1.2451v10.708h-1.2451z"/>
  <path d="m411.69 199.65h-1.2451v-9.602h-3.3911v-1.106h8.0273v1.106h-3.3911v9.602z"/>
  <path d="m421.62 199.65h-1.2158v-11.396h1.2158v11.396z"/>
  <path d="m425.43 199.65h-1.2158v-8.0274h1.2158v8.0274zm-1.3184-10.203q0-.41748.20508-.60791.20508-.19775.51269-.19775.29297 0 .50537.19775.21241.19776.21241.60791 0 .41016-.21241.61524-.2124.19775-.50537.19775-.30761 0-.51269-.19775-.20508-.20508-.20508-.61524z"/>
  <path d="m431.23 199.8q-1.7432 0-2.7026-1.0693-.95214-1.0767-.95214-3.0396 0-2.0142.96679-3.1128.97412-1.0986 2.7686-1.0986.57861 0 1.1572.12451.57862.12451.90821.29297l-.37354 1.0327q-.40283-.16114-.8789-.26368-.47608-.10986-.84229-.10986-2.4463 0-2.4463 3.1201 0 1.4795.59326 2.2705.60059.79101 1.7725.79101 1.0034 0 2.0581-.43213v1.0767q-.82.41-2.04.41z"/>
  <path d="m438.56 199.8q-1.7798 0-2.8125-1.084-1.0254-1.084-1.0254-3.0103 0-1.9409.95215-3.0835.95947-1.1426 2.5708-1.1426 1.5088 0 2.3877.99609.8789.98877.8789 2.6148v.76904h-5.5298q.0366 1.4136.71045 2.146.68115.73242 1.9116.73242 1.2964 0 2.5635-.54199v1.084q-.64454.27832-1.2232.39551-.57129.12451-1.3843.12451zm-.32959-7.3022q-.96679 0-1.5454.62988-.57129.62988-.67382 1.7432h4.1968q0-1.1499-.51269-1.7578-.5127-.61523-1.4648-.61523z"/>
  <path d="m449.07 199.65v-5.1929q0-.98145-.44678-1.4648-.44678-.4834-1.3989-.4834-1.2598 0-1.8457.68116-.58594.68115-.58594 2.2485v4.2114h-1.2158v-8.0274h.98877l.19776 1.0986h.0586q.37354-.59326 1.0474-.91553.67383-.32959 1.5015-.32959 1.4502 0 2.1826.70313.73242.6958.73242 2.2339v5.2368h-1.2158z"/>
  <path d="m457.95 197.46q0 1.1206-.83496 1.7285-.83496.60791-2.3438.60791-1.5967 0-2.4902-.50537v-1.1279q.57861.29297 1.2378.46143.66651.16845 1.2817.16845.95215 0 1.4648-.30029.5127-.30762.5127-.93017 0-.46875-.41016-.79834-.40283-.33692-1.582-.79102-1.1206-.41748-1.5967-.7251-.46875-.31494-.70312-.71045-.22705-.3955-.22705-.94482 0-.98145.79834-1.5454.79834-.57129 2.1899-.57129 1.2964 0 2.5342.52734l-.43213.98877q-1.2085-.49804-2.1899-.49804-.86426 0-1.3037.27099-.43946.271-.43946.74707 0 .32227.16114.54932.16845.22705.53466.43213t1.4062.59326q1.4282.52002 1.9263 1.0474.50537.52735.50537 1.3257z"/>
  <path d="m463.31 199.8q-1.7798 0-2.8125-1.084-1.0254-1.084-1.0254-3.0103 0-1.9409.95215-3.0835.95947-1.1426 2.5708-1.1426 1.5088 0 2.3877.99609.8789.98877.8789 2.6148v.76904h-5.5298q.0366 1.4136.71045 2.146.68115.73242 1.9116.73242 1.2964 0 2.5635-.54199v1.084q-.64453.27832-1.2231.39551-.57129.12451-1.3843.12451zm-.32959-7.3022q-.96679 0-1.5454.62988-.57129.62988-.67383 1.7432h4.1968q0-1.1499-.51269-1.7578-.5127-.61523-1.4648-.61523z"/>
  <path d="m473.79 198.58h-.0659q-.84228 1.2231-2.5195 1.2231-1.5747 0-2.4536-1.0767-.87158-1.0767-.87158-3.0615 0-1.9849.8789-3.0835.87891-1.0986 2.4463-1.0986 1.6333 0 2.5049 1.1865h.0952l-.0513-.57861-.0293-.56396v-3.2666h1.2158v11.396h-.98877l-.16113-1.0767zm-2.4316.20508q1.2451 0 1.8018-.67383.56396-.68115.56396-2.1899v-.25635q0-1.7065-.57129-2.4316-.56396-.73242-1.8091-.73242-1.0693 0-1.6406.83496-.56397.82763-.56397 2.3438 0 1.5381.56397 2.3218.56396.7837 1.6553.7837z"/>
 </g>
 <path style="fill:#00ae41;image-rendering:optimizeQuality;shape-rendering:geometricPrecision" d="m121.68 12.694 7.2168-7.239c1.2028-1.2028 3.0515.64595 1.8487 1.8487l-8.1523 8.1523c-.5123.5123-1.3364.5123-1.8487 0l-2.9847-3.007c-1.2028-1.2028.62368-3.0515 1.8487-1.8265l2.0715 2.0715z"/>
 <g transform="translate(-253.31 -184.18)">
  <path d="m695.8 199.65h-1.2305l-2.1606-7.1704q-.15381-.47608-.34424-1.2012-.19043-.7251-.19775-.87159-.16113.9668-.5127 2.1167l-2.0947 7.1265h-1.2305l-2.8491-10.708h1.3184l1.6919 6.6138q.35156 1.3916.5127 2.5195.19775-1.3403.58593-2.6221l1.919-6.5112h1.3184l2.0142 6.5698q.35156 1.1353.59326 2.5635.13916-1.04.52734-2.5342l1.6846-6.5991h1.3184l-2.8638 10.708z"/>
  <path d="m703.55 199.8q-1.7798 0-2.8125-1.084-1.0254-1.084-1.0254-3.0103 0-1.9409.95214-3.0835.95948-1.1426 2.5708-1.1426 1.5088 0 2.3877.99609.87891.98877.87891 2.6148v.76904h-5.5298q.0366 1.4136.71045 2.146.68115.73242 1.9116.73242 1.2964 0 2.5635-.54199v1.084q-.64453.27832-1.2232.39551-.57128.12451-1.3843.12451zm-.32959-7.3022q-.9668 0-1.5454.62988-.57129.62988-.67383 1.7432h4.1968q0-1.1499-.5127-1.7578-.51269-.61523-1.4648-.61523z"/>
  <path d="m709.78 199.65h-1.2158v-11.396h1.2158v11.396z"/>
  <path d="m713.59 199.65h-1.2158v-11.396h1.2158v11.396z"/>
  <path d="m730.31 199.65v-5.2222q0-.95947-.41015-1.4356-.41016-.4834-1.2744-.4834-1.1352 0-1.6772.65186t-.542 2.0068v4.4824h-1.2158v-5.2222q0-.95947-.41015-1.4356-.41016-.4834-1.2817-.4834-1.1426 0-1.6772.68848-.52734.68115-.52734 2.2412v4.2114h-1.2158v-8.0274h.98877l.19775 1.0986h.0586q.34423-.58594.96679-.91553.62989-.32959 1.4062-.32959 1.8823 0 2.4609 1.3623h.0586q.35889-.62988 1.04-.99609.68116-.36621 1.5527-.36621 1.3623 0 2.0361.70313.68115.6958.68115 2.2339v5.2368h-1.2158z"/>
  <path d="m738.96 199.65-.24169-1.1426h-.0586q-.60058.75439-1.2012 1.0254-.59326.26367-1.4868.26367-1.1938 0-1.875-.61523-.67382-.61524-.67382-1.7505 0-2.4316 3.8892-2.5488l1.3623-.0439v-.49805q0-.94482-.41016-1.3916-.40283-.4541-1.2964-.4541-1.0034 0-2.2705.61523l-.37354-.93017q.59327-.32227 1.2964-.50538.71045-.1831 1.4209-.1831 1.4356 0 2.124.63721.6958.6372.6958 2.0434v5.4785h-.90088zm-2.7466-.85694q1.1353 0 1.7798-.62255.65185-.62256.65185-1.7432v-.7251l-1.2158.0513q-1.4502.0513-2.0947.45411-.63721.3955-.63721 1.2378 0 .65918.39551 1.0034.40283.34423 1.1206.34423z"/>
  <path d="m743.59 199.65h-1.2158v-8.0274h1.2158v8.0274zm-1.3184-10.203q0-.41748.20508-.60791.20508-.19775.5127-.19775.29296 0 .50537.19775.2124.19776.2124.60791 0 .41016-.2124.61524-.21241.19775-.50537.19775-.30762 0-.5127-.19775-.20508-.20508-.20508-.61524z"/>
  <path d="m751.68 199.65v-5.1929q0-.98145-.44678-1.4648-.44678-.4834-1.3989-.4834-1.2598 0-1.8457.68116-.58594.68115-.58594 2.2485v4.2114h-1.2158v-8.0274h.98877l.19776 1.0986h.0586q.37354-.59326 1.0474-.91553.67383-.32959 1.5015-.32959 1.4502 0 2.1826.70313.73242.6958.73242 2.2339v5.2368h-1.2158z"/>
  <path d="m757.98 198.8q.32226 0 .62256-.0439.30029-.0513.47607-.10254v.93018q-.19775.0952-.58594.1538-.38086.0659-.68847.0659-2.3291 0-2.3291-2.4536v-4.7754h-1.1499v-.58594l1.1499-.50537.5127-1.7139h.70312v1.8604h2.3291v.94483h-2.3291v4.7241q0 .7251.34424 1.1133.34424.38818.94483.38818z"/>
  <path d="m765.62 199.65-.2417-1.1426h-.0586q-.60059.75439-1.2012 1.0254-.59327.26367-1.4868.26367-1.1938 0-1.875-.61523-.67383-.61524-.67383-1.7505 0-2.4316 3.8892-2.5488l1.3623-.0439v-.49805q0-.94482-.41016-1.3916-.40283-.4541-1.2964-.4541-1.0034 0-2.2705.61523l-.37354-.93017q.59326-.32227 1.2964-.50538.71045-.1831 1.4209-.1831 1.4355 0 2.124.63721.6958.6372.6958 2.0434v5.4785h-.90088zm-2.7466-.85694q1.1352 0 1.7798-.62255.65186-.62256.65186-1.7432v-.7251l-1.2158.0513q-1.4502.0513-2.0947.45411-.6372.3955-.6372 1.2378 0 .65918.3955 1.0034.40284.34423 1.1206.34423z"/>
  <path d="m770.25 199.65h-1.2158v-8.0274h1.2158v8.0274zm-1.3184-10.203q0-.41748.20508-.60791.20507-.19775.51269-.19775.29297 0 .50537.19775.2124.19776.2124.60791 0 .41016-.2124.61524-.2124.19775-.50537.19775-.30762 0-.51269-.19775-.20508-.20508-.20508-.61524z"/>
  <path d="m778.34 199.65v-5.1929q0-.98145-.44677-1.4648-.44678-.4834-1.3989-.4834-1.2598 0-1.8457.68116-.58594.68115-.58594 2.2485v4.2114h-1.2158v-8.0274h.98877l.19775 1.0986h.0586q.37353-.59326 1.0474-.91553.67383-.32959 1.5015-.32959 1.4502 0 2.1826.70313.73243.6958.73243 2.2339v5.2368h-1.2158z"/>
  <path d="m785.44 199.8q-1.7798 0-2.8125-1.084-1.0254-1.084-1.0254-3.0103 0-1.9409.95215-3.0835.95947-1.1426 2.5708-1.1426 1.5088 0 2.3877.99609.8789.98877.8789 2.6148v.76904h-5.5298q.0366 1.4136.71045 2.146.68115.73242 1.9116.73242 1.2964 0 2.5635-.54199v1.084q-.64453.27832-1.2231.39551-.57129.12451-1.3843.12451zm-.32959-7.3022q-.96679 0-1.5454.62988-.57129.62988-.67383 1.7432h4.1968q0-1.1499-.51269-1.7578-.5127-.61523-1.4648-.61523z"/>
  <path d="m795.92 198.58h-.0659q-.84228 1.2231-2.5195 1.2231-1.5747 0-2.4536-1.0767-.87158-1.0767-.87158-3.0615 0-1.9849.8789-3.0835.87891-1.0986 2.4463-1.0986 1.6333 0 2.5049 1.1865h.0952l-.0513-.57861-.0293-.56396v-3.2666h1.2158v11.396h-.98877l-.16113-1.0767zm-2.4316.20508q1.2451 0 1.8018-.67383.56396-.68115.56396-2.1899v-.25635q0-1.7065-.57129-2.4316-.56396-.73242-1.8091-.73242-1.0693 0-1.6406.83496-.56397.82763-.56397 2.3438 0 1.5381.56397 2.3218.56396.7837 1.6553.7837z"/>
 </g>
 <path style="fill:#00ae41;image-rendering:optimizeQuality;shape-rendering:geometricPrecision" d="m417.76 12.694 7.2168-7.239c1.2028-1.2028 3.0515.64595 1.8487 1.8487l-8.1523 8.1523c-.5123.5123-1.3364.5123-1.8487 0l-2.9847-3.007c-1.2028-1.2028.62368-3.0515 1.8487-1.8265l2.0715 2.0715z"/>
</svg>
