<?xml version="1.0" encoding="UTF-8" standalone="no"?>
<svg xmlns:rdf="http://www.w3.org/1999/02/22-rdf-syntax-ns#" xmlns="http://www.w3.org/2000/svg" height="9.8425mm" width="138.24mm" version="1.1" xmlns:cc="http://creativecommons.org/ns#" xmlns:dc="http://purl.org/dc/elements/1.1/" viewBox="0 0 489.818 34.875519">
 <rect style="color-rendering:auto;color:#000000;isolation:auto;mix-blend-mode:normal;shape-rendering:auto;solid-color:#000000;stroke:#31343d;image-rendering:auto;stroke-width:.12552;fill:#f2f2f2" rx="2.8706" ry="5.6267" height="34.75" width="489.7" y=".062760" x=".054276"/>
 <g transform="translate(-247.08 -176.52)">
  <path d="m315.71 199.64v-11.818h4.1318q1.2349 0 2.037.42702.80211.42126 1.1945 1.1368.39241.70978.39241 1.5754 0 .76172-.27122 1.258-.26545.49628-.70402.78481-.43279.28852-.9406.42702v.11541q.54243.0346 1.0906.38086.54821.34624.91752.99254.36932.64631.36932 1.5812 0 .88867-.40394 1.5984-.40394.70979-1.2753 1.1253-.87136.41548-2.2678.41548h-4.2702zm1.4311-1.2695h2.8391q1.4023 0 1.9909-.54244.59437-.5482.59437-1.3272 0-.60015-.30584-1.108-.30584-.51358-.87136-.81942-.56552-.31161-1.3388-.31161h-2.9084v4.1087zm0-5.3551h2.6545q.6463 0 1.1657-.25391.52512-.25391.83096-.71555.31161-.46165.31161-1.0849 0-.77903-.54243-1.3215-.54244-.54821-1.7196-.54821h-2.7006v3.924z"/>
  <path d="m328.71 199.85q-.84251 0-1.5292-.31738-.6867-.32315-1.0906-.92907-.40394-.61168-.40394-1.4773 0-.76172.30007-1.2349.30007-.47896.80211-.75017.50204-.27122 1.108-.40395.61168-.13849 1.2291-.21928.80789-.10387 1.3099-.1558.50781-.0577.73864-.19043.23659-.13273.23659-.46165v-.0462q0-.85405-.46742-1.3272-.46165-.47319-1.4022-.47319-.97523 0-1.5292.42702-.55398.42703-.77903.91176l-1.2926-.46165q.34623-.80789.92329-1.258.58283-.45588 1.2695-.63477.69247-.18466 1.3619-.18466.42703 0 .981.10387.55975.0981 1.0791.40972.52512.31161.87136.9406.34623.629.34623 1.685v5.8398h-1.3619v-1.2003h-.0693q-.13849.28853-.46164.61745-.32316.32892-.85982.55975-.53667.23082-1.3099.23082zm.20774-1.2234q.80789 0 1.3619-.31739.55975-.31738.84251-.81942.28853-.50204.28853-1.056v-1.2464q-.0866.10387-.38086.19043-.28853.0808-.66939.14427-.37509.0577-.73286.10387-.35201.0404-.57129.0692-.5309.0692-.99255.22506-.45587.15003-.73863.45587-.27699.30007-.27699.81943 0 .70978.52512 1.0733.5309.35778 1.3446.35778z"/>
  <path d="m341.55 192.76-1.2234.34624q-.11541-.30585-.34047-.59438-.21928-.2943-.60014-.48473t-.97523-.19043q-.81365 0-1.3561.37509-.53667.36932-.53667.94061 0 .50781.36932.80211t1.1541.4905l1.3157.32316q1.1887.28853 1.7716.8829.58283.5886.58283 1.5177 0 .76171-.43856 1.3619-.4328.60014-1.2118.94637-.77903.34624-1.812.34624-1.3561 0-2.2448-.5886-.88867-.5886-1.1253-1.7196l1.2926-.32315q.18466.71555.69824 1.0733.51935.35778 1.3561.35778.95215 0 1.5119-.40395.56552-.40971.56552-.981 0-.46164-.32316-.77326-.32315-.31738-.99254-.47319l-1.4773-.34623q-1.2176-.28853-1.7889-.89444-.56552-.61169-.56552-1.5292 0-.75018.42126-1.3272.42702-.57706 1.1599-.90598.73863-.32893 1.6735-.32893 1.3157 0 2.0659.57706.75595.57706 1.0733 1.5234z"/>
  <path d="m343.78 199.64v-8.8636h1.3619v8.8636h-1.3619zm.69248-10.341q-.39817 0-.6867-.27122-.28276-.27121-.28276-.65207t.28276-.65208q.28853-.27122.6867-.27122t.68093.27122q.28853.27122.28853.65208t-.28853.65207q-.28276.27122-.68093.27122z"/>
  <path d="m351.22 199.83q-1.2464 0-2.1467-.5886-.90022-.5886-1.385-1.6215-.48473-1.0329-.48473-2.3602 0-1.3503.49628-2.3833.50204-1.0387 1.3965-1.6215.90021-.5886 2.1005-.5886.93483 0 1.685.34624.75018.34623 1.2291.96946.47896.62322.59437 1.4542h-1.3619q-.15581-.60591-.69247-1.0733-.5309-.47319-1.4311-.47319-.79634 0-1.3965.41548-.59437.40971-.92906 1.1599-.32893.74441-.32893 1.7485 0 1.0272.32316 1.7889.32892.76172.92329 1.183.60015.42125 1.408.42125.53089 0 .96369-.18466.43279-.18465.73286-.53089.30008-.34624.42703-.83097h1.3619q-.11541.78481-.57129 1.4138-.45011.62322-1.1945.99254-.73864.36355-1.7196.36355z"/>
 </g>
 <g transform="matrix(.67756 0 0 .67756 -180.2 -55.857)">
  <path style="color-rendering:auto;color:#000000;isolation:auto;mix-blend-mode:normal;shape-rendering:auto;solid-color:#000000;image-rendering:auto;stroke-width:0;fill:#00ae41" d="m289.85 93.447c-5.727-.04352-11.258 3.5716-13.489 8.8515-2.3711 5.2784-1.2036 11.873 2.8286 16.023 3.9393 4.2348 10.467 5.7354 15.859 3.634 5.5262-2.0093 9.4863-7.5931 9.5264-13.477.19834-5.8306-3.4662-11.532-8.8386-13.8-1.8543-.80699-3.866-1.2119-5.8871-1.2304z"/>
  <g style="fill:#31343d" transform="matrix(.014242 .0011635 -.0011635 .014242 280.68 100.54)">
   <path style="fill:#31343d" d="m465 950c-3-5 17-83 45-172 29-90 65-203 80-253 128-405 154-483 166-502 13-20 23-23 83-23 46 0 70 4 73 13 7 17-271 908-290 930-11 13-31 17-83 17-37 0-71-4-74-10z"/>
   <path style="fill:#31343d" d="m255 788c-27-17-75-45-105-61-30-17-73-42-95-56l-40-27-3-91-3-91 33-25c45-32 463-267 477-267 15 0 15 1-15 101-15 49-36 97-48 108s-77 52-146 91-129 75-133 79 33 31 83 60c49 29 94 60 99 69 11 21-25 142-42 142-7 0-34-15-62-32z"/>
   <path style="fill:#31343d" d="m840 803c0-30 56-180 73-197 12-12 79-55 150-95 70-40 127-76 127-79 0-4-24-20-53-36-94-53-137-86-137-107 0-27 30-118 42-125 10-6 273 141 300 169 26 25 26 177 1 199-34 29-474 278-492 278-6 0-11-3-11-7z"/>
  </g>
 </g>
 <g transform="translate(-247.08 -176.52)">
  <path d="m277.49 199.56v-11.538h2.4212v9.3925h4.7125v2.145h-7.1338z"/>
  <path d="m289.22 199.8q-.91 0-1.6575-.2925-.73125-.2925-1.2512-.82875-.50375-.53625-.69875-1.2675l2.0475-.43875q.1625.50375.585.79625t1.0075.2925q.5525 0 .91-.24375t.3575-.66625q0-.3575-.325-.585-.30875-.24375-1.04-.37375l-.455-.0812q-1.3975-.24375-2.1288-.91-.715-.66625-.715-1.69 0-.8125.4225-1.43.4225-.63375 1.17-.99125t1.7225-.3575q.86125 0 1.56.2925.715.27625 1.1862.79625.47125.52.65 1.2512l-2.0312.4225q-.1625-.4875-.53625-.76375-.3575-.27625-.845-.27625-.50375 0-.82875.24375t-.325.6175q0 .325.30875.5525.325.21125 1.0888.34125l.455.0812q1.3812.24375 2.1125.92625.73125.66625.73125 1.7062 0 .63375-.26 1.1538-.24375.52-.715.91t-1.105.60125-1.3975.21125z"/>
  <path d="m298.23 199.8q-.95875 0-1.7712-.34125-.8125-.34125-1.4138-.9425-.60125-.6175-.9425-1.4462-.325-.82875-.325-1.8038 0-.975.34125-1.7875.34125-.82875.9425-1.4462.6175-.6175 1.43-.95875.82875-.34125 1.8038-.34125.95875 0 1.7712.34125.8125.34125 1.4138.95875.60125.60125.92625 1.43.34125.8125.34125 1.7875t-.34125 1.8038q-.34125.82875-.95875 1.4462-.60125.6175-1.43.95875-.8125.34125-1.7875.34125zm.0325-2.0475q.6175 0 1.105-.325t.76375-.8775q.2925-.56875.2925-1.2838 0-.715-.2925-1.2675-.27625-.56875-.76375-.89375t-1.105-.325-1.105.325-.78.89375q-.27625.5525-.27625 1.2675t.27625 1.2838q.2925.5525.78.8775t1.105.325z"/>
  <path d="m307.31 199.8q-.91 0-1.6575-.2925-.73125-.2925-1.2512-.82875-.50375-.53625-.69875-1.2675l2.0475-.43875q.1625.50375.585.79625t1.0075.2925q.5525 0 .91-.24375t.3575-.66625q0-.3575-.325-.585-.30875-.24375-1.04-.37375l-.455-.0812q-1.3975-.24375-2.1288-.91-.715-.66625-.715-1.69 0-.8125.4225-1.43.4225-.63375 1.17-.99125t1.7225-.3575q.86125 0 1.56.2925.715.27625 1.1862.79625.47125.52.65 1.2512l-2.0312.4225q-.1625-.4875-.53625-.76375-.3575-.27625-.845-.27625-.50375 0-.82875.24375t-.325.6175q0 .325.30875.5525.325.21125 1.0888.34125l.455.0812q1.3812.24375 2.1125.92625.73125.66625.73125 1.7062 0 .63375-.26 1.1538-.24375.52-.715.91t-1.105.60125-1.3975.21125z"/>
 </g>
 <g transform="translate(-247.08 -176.52)">
  <path d="m389.31 199.03v-10.909h6.5412v1.1719h-5.2202v3.6861h4.7301v1.1719h-4.7301v4.8793h-1.321z"/>
  <path d="m402.58 195.69v-4.8366h1.2571v8.1818h-1.2571v-1.3849h-.0852q-.28765.62322-.89489 1.06-.60724.43146-1.5341.43146-.76705 0-1.3636-.33558-.59659-.34091-.9375-1.0227-.34091-.68714-.34091-1.7312v-5.1989h1.2571v5.1136q0 .89488.50071 1.4276.50603.53268 1.2891.53268.46875 0 .95348-.23971.49006-.2397.82031-.73508.33558-.49539.33558-1.2624z"/>
  <path d="m407.39 194.11v4.9219h-1.2571v-8.1818h1.2145v1.2784h.10654q.28764-.62322.87358-1.0014.58594-.38352 1.5128-.38352.83097 0 1.4542.34091.62323.33558.96946 1.0227.34624.68182.34624 1.7259v5.1989h-1.2571v-5.1136q0-.96413-.50071-1.5021-.50071-.54332-1.3743-.54332-.60192 0-1.076.26101-.46875.26101-.74041.76172t-.27166 1.2145z"/>
  <path d="m418.01 199.2q-1.0227 0-1.8058-.51669-.78302-.52201-1.2251-1.4702-.44211-.95348-.44211-2.2532 0-1.2891.44211-2.2372.44212-.94815 1.2305-1.4648.78835-.51669 1.8217-.51669.79901 0 1.2624.26633.46875.26101.71378.59659.25036.33026.38885.54333h.10653v-4.027h1.2571v10.909h-1.2145v-1.2571h-.14915q-.13849.22372-.39418.56463-.25568.33558-.72975.60192-.47408.261-1.2624.261zm.17045-1.1293q.75639 0 1.2784-.39417.52202-.39951.79368-1.1026.27166-.70845.27166-1.6353 0-.91619-.26633-1.6033-.26634-.69247-.78836-1.076-.52201-.38885-1.2891-.38885-.799 0-1.3317.41016-.52735.40482-.79368 1.1026-.26101.69247-.26101 1.5554 0 .87358.26633 1.5874.27166.70845.79901 1.1293.53267.41548 1.321.41548z"/>
  <path d="m427.67 199.2q-1.1825 0-2.0401-.52201-.85227-.52735-1.3157-1.4702-.4581-.94816-.4581-2.2053t.4581-2.2159q.46342-.96413 1.2891-1.5021.83097-.54332 1.9389-.54332.63921 0 1.2624.21307.62322.21306 1.1346.69247.51136.47407.81498 1.2571.30363.78303.30363 1.9283v.53267h-6.3068v-1.0866h5.0284q0-.69247-.27699-1.2358-.27166-.54332-.7777-.8576-.50071-.31427-1.1825-.31427-.75106 0-1.2997.37287-.54333.36754-.8363.95881-.29297.59126-.29297 1.2678v.72443q0 .92685.31961 1.5714.32493.6392.90021.97479.57528.33025 1.337.33025.49539 0 .89489-.13849.40483-.14382.6978-.42614.29297-.28764.45277-.71378l1.2145.34091q-.19177.6179-.64454 1.0866-.45277.46342-1.1186.72443-.66584.25568-1.4968.25568z"/>
  <path d="m436.06 199.2q-1.0227 0-1.8058-.51669-.78303-.52201-1.2251-1.4702-.44212-.95348-.44212-2.2532 0-1.2891.44212-2.2372.44211-.94815 1.2305-1.4648.78835-.51669 1.8217-.51669.799 0 1.2624.26633.46875.26101.71378.59659.25035.33026.38885.54333h.10653v-4.027h1.2571v10.909h-1.2145v-1.2571h-.14914q-.1385.22372-.39418.56463-.25568.33558-.72976.60192-.47408.261-1.2624.261zm.17046-1.1293q.75639 0 1.2784-.39417.52201-.39951.79367-1.1026.27167-.70845.27167-1.6353 0-.91619-.26634-1.6033-.26633-.69247-.78835-1.076-.52202-.38885-1.2891-.38885-.79901 0-1.3317.41016-.52734.40482-.79368 1.1026-.26101.69247-.26101 1.5554 0 .87358.26634 1.5874.27166.70845.799 1.1293.53267.41548 1.321.41548z"/>
  <path d="m446.67 199.03v-10.909h1.2571v4.027h.10653q.13849-.21307.38352-.54333.25036-.33558.71378-.59659.46875-.26633 1.2678-.26633 1.0334 0 1.8217.51669.78835.51669 1.2305 1.4648.44212.94816.44212 2.2372 0 1.2997-.44212 2.2532-.44212.94816-1.2251 1.4702-.78303.51669-1.8058.51669-.78835 0-1.2624-.261-.47408-.26634-.72976-.60192-.25569-.34091-.39418-.56463h-.14915v1.2571h-1.2145zm1.2358-4.0909q0 .92685.27166 1.6353.27166.70312.79368 1.1026.52202.39417 1.2784.39417.78835 0 1.3157-.41548.53267-.42081.799-1.1293.27166-.71378.27166-1.5874 0-.86293-.26633-1.5554-.26101-.6978-.79368-1.1026-.52734-.41016-1.3264-.41016-.76705 0-1.2891.38885-.52202.38352-.78836 1.076-.26633.68715-.26633 1.6033z"/>
  <path d="m456.33 202.08q-.31961 0-.56996-.0533-.25036-.0479-.34624-.0959l.31961-1.108q.68714.17578 1.1452-.0106.45809-.18111.79368-1.0973l.23437-.63921-3.0256-8.2244h1.3636l2.2585 6.5199h.0852l2.2585-6.5199 1.3743.0213-3.4837 9.3537q-.23438.62323-.58061 1.0334-.34624.41549-.80434.6179-.45277.20241-1.0227.20241z"/>
  <path d="m477.04 191.53h-1.321q-.11719-.56996-.41016-1.0014-.28764-.43146-.70312-.72443-.41016-.2983-.91087-.44745-.50071-.14914-1.044-.14914-.99077 0-1.7951.50071-.79901.50071-1.2731 1.4755-.46875.97479-.46875 2.3917t.46875 2.3917q.47408.97479 1.2731 1.4755.80433.50071 1.7951.50071.54332 0 1.044-.14915.50071-.14914.91087-.44211.41548-.2983.70312-.72976.29297-.43679.41016-1.0014h1.321q-.14915.83629-.54332 1.4968-.39418.66051-.98012 1.1239-.58594.45809-1.3157.6978-.72444.2397-1.5501.2397-1.3956 0-2.4822-.68182t-1.7099-1.9389q-.62323-1.2571-.62323-2.983 0-1.7258.62323-2.983.62322-1.2571 1.7099-1.9389 1.0866-.68182 2.4822-.68182.82563 0 1.5501.2397.72975.2397 1.3157.70313.58594.45809.98012 1.1186.39417.65518.54332 1.4968z"/>
  <path d="m482.31 199.2q-1.108 0-1.9442-.52734-.83097-.52734-1.2997-1.4755-.46342-.94815-.46342-2.2159 0-1.2784.46342-2.2319.46875-.95348 1.2997-1.4808.83629-.52734 1.9442-.52734 1.108 0 1.9389.52734.83629.52735 1.2997 1.4808.46875.95348.46875 2.2319 0 1.2678-.46875 2.2159-.46342.94816-1.2997 1.4755-.83.53-1.94.53zm0-1.1293q.84162 0 1.3849-.43146.54332-.43146.80433-1.1346.26101-.70312.26101-1.5234 0-.82031-.26101-1.5288-.26101-.70845-.80433-1.1452-.54332-.43679-1.3849-.43679-.84162 0-1.385.43679-.54332.43679-.80433 1.1452-.26101.70845-.26101 1.5288 0 .82032.26101 1.5234.26101.70313.80433 1.1346.54333.43146 1.385.43146z"/>
  <path d="m488.84 199.12q-.39417 0-.67649-.28232-.28231-.28231-.28231-.67649t.28231-.67649q.28232-.28232.67649-.28232.39418 0 .6765.28232.28231.28231.28231.67649 0 .26101-.13317.4794-.12784.2184-.34623.35157-.21.13-.48.13z"/>
 </g>
 <path style="fill:#00ae41;image-rendering:optimizeQuality;shape-rendering:geometricPrecision" d="m127.23 19.853 7.2168-7.239c1.2028-1.2028 3.0515.64595 1.8487 1.8487l-8.1523 8.1523c-.5123.5123-1.3364.5123-1.8487 0l-2.9847-3.007c-1.2028-1.2028.62368-3.0515 1.8487-1.8265l2.0715 2.0715z"/>
 <g transform="translate(-247.08 -176.52)">
  <path d="m643.65 188.27h1.5767l3.7074 9.0554h.12784l3.7074-9.0554h1.5767v10.909h-1.2358v-8.2884h-.10654l-3.4091 8.2884h-1.1932l-3.4091-8.2884h-.10654v8.2884h-1.2358v-10.909z"/>
  <path d="m658.3 188.27v10.909h-1.321v-10.909h1.321z"/>
  <path d="m660.34 189.44v-1.1719h8.1818v1.1719h-3.4304v9.7372h-1.321v-9.7372h-3.4304z"/>
  <path d="m674.79 199.18v-10.909h1.321v9.7372h5.071v1.1719h-6.392z"/>
  <path d="m683.06 199.18v-8.1818h1.2571v8.1818h-1.2571zm.63921-9.5455q-.36755 0-.63388-.25035-.26101-.25036-.26101-.60192t.26101-.60192q.26633-.25035.63388-.25035.36754 0 .62855.25035.26633.25036.26633.60192t-.26633.60192q-.26101.25035-.62855.25035z"/>
  <path d="m689.93 199.35q-1.1506 0-1.9815-.54332-.83096-.54333-1.2784-1.4968-.44744-.95348-.44744-2.1786 0-1.2464.4581-2.1999.46342-.95881 1.2891-1.4968.83097-.54333 1.9389-.54333.86293 0 1.5554.31961.69247.3196 1.1346.89488.44211.57529.54865 1.3423h-1.2571q-.14382-.5593-.6392-.99077-.49006-.43679-1.321-.43679-.73509 0-1.2891.38353-.54866.37819-.8576 1.0707-.30363.68714-.30363 1.614 0 .94815.2983 1.6513.30362.70312.85227 1.092.55398.38885 1.2997.38885.49005 0 .88956-.17046.3995-.17045.67649-.49005t.39417-.76705h1.2571q-.10654.72443-.52735 1.305-.41548.57529-1.1026.9162-.68182.33558-1.5874.33558z"/>
  <path d="m698.42 199.35q-1.1825 0-2.0401-.52202-.85227-.52734-1.3157-1.4702-.45809-.94815-.45809-2.2052 0-1.2571.45809-2.2159.46343-.96414 1.2891-1.5021.83096-.54333 1.9389-.54333.6392 0 1.2624.21307.62322.21307 1.1346.69247.51137.47408.81499 1.2571t.30362 1.9283v.53267h-6.3068v-1.0866h5.0284q0-.69248-.27699-1.2358-.27166-.54332-.77769-.8576-.50071-.31428-1.1825-.31428-.75107 0-1.2997.37287-.54332.36755-.83629.95881-.29297.59127-.29297 1.2678v.72443q0 .92685.3196 1.5714.32493.6392.90022.97478.57528.33026 1.337.33026.49538 0 .89488-.1385.40483-.14382.6978-.42613.29297-.28764.45277-.71378l1.2145.34091q-.19176.6179-.64453 1.0866-.45277.46342-1.1186.72443-.66584.25568-1.4968.25568z"/>
  <path d="m704.97 194.26v4.9219h-1.2571v-8.1818h1.2145v1.2784h.10653q.28764-.62323.87358-1.0014.58594-.38353 1.5128-.38353.83096 0 1.4542.34091.62322.33559.96946 1.0227.34623.68182.34623 1.7258v5.1989h-1.2571v-5.1136q0-.96413-.50071-1.5021-.50071-.54333-1.3743-.54333-.60192 0-1.076.26101-.46875.26101-.74042.76172-.27166.50071-.27166 1.2145z"/>
  <path d="m718.3 192.83-1.1293.31961q-.10653-.28232-.31427-.54865-.20242-.27167-.55398-.44745t-.90021-.17578q-.75107 0-1.2518.34624-.49538.34091-.49538.86825 0 .46875.34091.74041t1.0653.45277l1.2145.2983q1.0973.26633 1.6353.81498.53799.54333.53799 1.4009 0 .70312-.40483 1.2571-.3995.55398-1.1186.87358-.71911.3196-1.6726.3196-1.2518 0-2.0721-.54332-.82031-.54333-1.0387-1.5874l1.1932-.2983q.17045.66051.64453.99077.4794.33026 1.2518.33026.87891 0 1.3956-.37287.52202-.3782.52202-.90554 0-.42614-.2983-.71378-.29829-.29297-.91619-.43679l-1.3636-.3196q-1.1239-.26634-1.6513-.82564-.52201-.56463-.52201-1.4116 0-.69247.38885-1.2251.39417-.53267 1.0707-.83629.68182-.30363 1.5448-.30363 1.2145 0 1.907.53267.6978.53267.99077 1.4062z"/>
  <path d="m723.79 199.35q-1.1825 0-2.0401-.52202-.85227-.52734-1.3157-1.4702-.4581-.94815-.4581-2.2052 0-1.2571.4581-2.2159.46342-.96414 1.2891-1.5021.83097-.54333 1.9389-.54333.63921 0 1.2624.21307.62322.21307 1.1346.69247.51136.47408.81498 1.2571.30363.78302.30363 1.9283v.53267h-6.3068v-1.0866h5.0284q0-.69248-.27699-1.2358-.27166-.54332-.7777-.8576-.50071-.31428-1.1825-.31428-.75106 0-1.2997.37287-.54332.36755-.83629.95881-.29297.59127-.29297 1.2678v.72443q0 .92685.31961 1.5714.32492.6392.90021.97478.57528.33026 1.337.33026.49539 0 .89489-.1385.40483-.14382.6978-.42613.29297-.28764.45277-.71378l1.2145.34091q-.19176.6179-.64453 1.0866-.45277.46342-1.1186.72443-.66584.25568-1.4968.25568z"/>
 </g>
 <path style="fill:#00ae41;image-rendering:optimizeQuality;shape-rendering:geometricPrecision" d="m381.03 19.853 7.2168-7.239c1.2028-1.2028 3.0515.64595 1.8487 1.8487l-8.1523 8.1523c-.5123.5123-1.3364.5123-1.8487 0l-2.9847-3.007c-1.2028-1.2028.62368-3.0515 1.8487-1.8265l2.0715 2.0715z"/>
 <g transform="translate(-247.08 -176.52)">
  <path d="m527.95 188.25h1.5767l3.7074 9.0554h.12784l3.7074-9.0554h1.5767v10.909h-1.2358v-8.2884h-.10654l-3.4091 8.2884h-1.1932l-3.4091-8.2884h-.10653v8.2884h-1.2358v-10.909z"/>
  <path d="m543.51 199.35q-.77769 0-1.4116-.29297-.63388-.2983-1.0068-.8576-.37287-.56463-.37287-1.3636 0-.70312.27699-1.1399.27699-.44212.74041-.69247.46343-.25036 1.0227-.37287.56463-.12784 1.1346-.20242.74574-.0959 1.2092-.14382.46875-.0533.68182-.17578.21839-.12251.21839-.42614v-.0426q0-.78835-.43146-1.2251-.42614-.43679-1.2944-.43679-.90021 0-1.4116.39417-.51136.39418-.7191.84162l-1.1932-.42613q.3196-.74574.85227-1.1612.538-.42081 1.1719-.58594.63921-.17046 1.2571-.17046.39417 0 .90554.0959.51669.0906.99609.3782.48473.28764.80433.86825t.3196 1.5554v5.3906h-1.2571v-1.108h-.0639q-.12784.26634-.42613.56996-.2983.30362-.79368.51669-.49539.21307-1.2092.21307zm.19177-1.1293q.74573 0 1.2571-.29297.51669-.29297.7777-.75639.26633-.46343.26633-.97479v-1.1506q-.0799.0959-.35156.17578-.26634.0746-.6179.13317-.34623.0533-.67649.0959-.32493.0373-.52734.0639-.49006.0639-.9162.20774-.42081.1385-.68181.42081-.25569.27699-.25569.75639 0 .65519.48473.99077.49006.33026 1.2411.33026z"/>
  <path d="m549.57 199.16v-8.1818h1.2571v8.1818h-1.2571zm.63921-9.5455q-.36755 0-.63388-.25035-.26101-.25036-.26101-.60192t.26101-.60192q.26633-.25035.63388-.25035.36754 0 .62855.25035.26633.25036.26633.60192t-.26633.60192q-.26101.25035-.62855.25035z"/>
  <path d="m554.38 194.24v4.9219h-1.2571v-8.1818h1.2145v1.2784h.10654q.28764-.62323.87358-1.0014.58593-.38353 1.5128-.38353.83097 0 1.4542.34091.62322.33559.96946 1.0227.34624.68182.34624 1.7258v5.1989h-1.2571v-5.1136q0-.96413-.50071-1.5021-.50071-.54332-1.3743-.54332-.60191 0-1.076.261-.46875.26101-.74041.76172t-.27166 1.2145z"/>
  <path d="m565.47 190.98v1.0653h-4.24v-1.0653h4.24zm-3.0043-1.9602h1.2571v7.7983q0 .53267.15447.799.1598.26101.40483.35156.25035.0852.52734.0852.20774 0 .34091-.0213.13317-.0266.21307-.0426l.25568 1.1293q-.12784.0479-.35689.0959-.22905.0533-.58061.0533-.53267 0-1.044-.22905-.50604-.22905-.84162-.6978-.33026-.46875-.33026-1.1825v-8.1392z"/>
  <path d="m569.76 199.35q-.77769 0-1.4116-.29297-.63388-.2983-1.0068-.8576-.37287-.56463-.37287-1.3636 0-.70312.27699-1.1399.27699-.44212.74041-.69247.46343-.25036 1.0227-.37287.56463-.12784 1.1346-.20242.74574-.0959 1.2092-.14382.46875-.0533.68182-.17578.21839-.12251.21839-.42614v-.0426q0-.78835-.43146-1.2251-.42614-.43679-1.2944-.43679-.90021 0-1.4116.39417-.51136.39418-.7191.84162l-1.1932-.42613q.3196-.74574.85227-1.1612.538-.42081 1.1719-.58594.63921-.17046 1.2571-.17046.39417 0 .90554.0959.51669.0906.99609.3782.48473.28764.80433.86825t.3196 1.5554v5.3906h-1.2571v-1.108h-.0639q-.12784.26634-.42613.56996-.2983.30362-.79368.51669-.49539.21307-1.2092.21307zm.19177-1.1293q.74573 0 1.2571-.29297.51669-.29297.7777-.75639.26633-.46343.26633-.97479v-1.1506q-.0799.0959-.35156.17578-.26634.0746-.6179.13317-.34623.0533-.67649.0959-.32493.0373-.52734.0639-.49006.0639-.9162.20774-.42081.1385-.68181.42081-.25569.27699-.25569.75639 0 .65519.48473.99077.49006.33026 1.2411.33026z"/>
  <path d="m575.82 199.16v-8.1818h1.2571v8.1818h-1.2571zm.63921-9.5455q-.36755 0-.63388-.25035-.26101-.25036-.26101-.60192t.26101-.60192q.26633-.25035.63388-.25035.36754 0 .62855.25035.26633.25036.26633.60192t-.26633.60192q-.26101.25035-.62855.25035z"/>
  <path d="m580.63 194.24v4.9219h-1.2571v-8.1818h1.2145v1.2784h.10654q.28764-.62323.87358-1.0014.58593-.38353 1.5128-.38353.83097 0 1.4542.34091.62322.33559.96946 1.0227.34624.68182.34624 1.7258v5.1989h-1.2571v-5.1136q0-.96413-.50071-1.5021-.50071-.54332-1.3743-.54332-.60191 0-1.076.261-.46875.26101-.74041.76172t-.27166 1.2145z"/>
  <path d="m591.59 199.33q-1.1825 0-2.0401-.52202-.85228-.52734-1.3157-1.4702-.4581-.94815-.4581-2.2052 0-1.2571.4581-2.2159.46342-.96413 1.2891-1.5021.83097-.54333 1.9389-.54333.63921 0 1.2624.21307.62323.21307 1.1346.69247.51136.47408.81499 1.2571.30362.78302.30362 1.9283v.53267h-6.3068v-1.0866h5.0284q0-.69248-.27699-1.2358-.27166-.54332-.7777-.8576-.50071-.31427-1.1825-.31427-.75106 0-1.2997.37286-.54333.36755-.8363.95881-.29296.59127-.29296 1.2678v.72443q0 .92685.3196 1.5714.32493.6392.90021.97478.57528.33026 1.337.33026.49539 0 .89489-.13849.40483-.14383.6978-.42614.29297-.28764.45277-.71378l1.2145.34091q-.19176.6179-.64453 1.0866-.45277.46342-1.1186.72443-.66584.25568-1.4968.25568z"/>
  <path d="m599.98 199.33q-1.0227 0-1.8058-.51669-.78303-.52202-1.2251-1.4702-.44212-.95348-.44212-2.2532 0-1.2891.44212-2.2372.44211-.94816 1.2305-1.4648.78835-.51669 1.8217-.51669.79901 0 1.2624.26634.46875.26101.71378.59659.25035.33026.38885.54332h.10653v-4.027h1.2571v10.909h-1.2145v-1.2571h-.14914q-.1385.22373-.39418.56463-.25568.33559-.72976.60192-.47407.26101-1.2624.26101zm.17046-1.1293q.75639 0 1.2784-.39418.52201-.3995.79368-1.1026.27166-.70846.27166-1.6353 0-.9162-.26634-1.6033-.26633-.69247-.78835-1.076-.52202-.38885-1.2891-.38885-.79901 0-1.3317.41015-.52734.40483-.79368 1.1026-.26101.69247-.26101 1.5554 0 .87358.26634 1.5874.27166.70845.799 1.1293.53268.41548 1.321.41548z"/>
 </g>
 <path style="fill:#00ae41;image-rendering:optimizeQuality;shape-rendering:geometricPrecision" d="m265.63 19.853 7.2168-7.239c1.2028-1.2028 3.0515.64595 1.8487 1.8487l-8.1524 8.1523c-.5123.51236-1.3364.51236-1.8487 0l-2.9847-3.007c-1.2028-1.2028.62367-3.0515 1.8487-1.8265l2.0715 2.0715z"/>
</svg>
