<?xml version="1.0" encoding="UTF-8" standalone="no"?>
<svg xmlns:rdf="http://www.w3.org/1999/02/22-rdf-syntax-ns#" xmlns="http://www.w3.org/2000/svg" height="33.654mm" width="61.587mm" version="1.1" xmlns:cc="http://creativecommons.org/ns#" xmlns:dc="http://purl.org/dc/elements/1.1/" viewBox="0 0 218.21964 119.24382">
 <g transform="translate(-173.62 -173.62)">
  <path d="m226.38 225.33q.27099 0 .40283.10987.13916.10254.14648.36621l.21973 7.8882q.007.25635-.11719.36621-.11719.10987-.41748.10987h-.0147q-.30029 0-.41748-.10987-.11718-.10986-.12451-.36621l-.15381-5.9546-1.5161 3.2666q-.11719.25635-.271.36621-.15381.10254-.40283.10254t-.40283-.10254q-.15381-.10986-.271-.36621l-1.5161-3.2666-.15381 5.9546q-.007.25635-.12451.36621-.11719.10987-.41748.10987h-.0146q-.30029 0-.4248-.10987-.11719-.10986-.10987-.36621l.21973-7.8882q.007-.26367.14648-.36621.13916-.10987.41016-.10987h.0146q.25635 0 .41748.11719.16846.10986.28564.35889l1.9409 4.1748 1.9409-4.1748q.11719-.24903.28564-.35889.16846-.11719.42481-.11719h.0146z"/>
  <path d="m235.27 233.04q.24903 0 .35156.12451.10987.11718.10987.40283 0 .28564-.10987.41016-.10253.11718-.35156.11718h-5.1416q-.24902 0-.35889-.11718-.10253-.12452-.10253-.41016 0-.28565.10253-.40283.10987-.12451.35889-.12451h2.0215v-6.5845h-1.875q-.24903 0-.35889-.11718-.10254-.12452-.10254-.41016 0-.28565.10254-.40283.10986-.12451.35889-.12451h4.8486q.24902 0 .35156.12451.10986.11718.10986.40283 0 .28564-.10986.41016-.10254.11718-.35156.11718h-1.875v6.5845h2.0215z"/>
  <path d="m244.84 225.4q.24903 0 .35156.12451.10987.11718.10987.40283 0 .28564-.10987.41016-.10253.11718-.35156.11718h-2.5928v7.2363q0 .25635-.12451.36621-.11719.10987-.41748.10987h-.0146q-.30029 0-.42481-.10987-.11718-.10986-.11718-.36621v-7.2363h-2.5928q-.24902 0-.35888-.11718-.10254-.12452-.10254-.41016 0-.28565.10254-.40283.1-.12.35-.12h6.2842z"/>
  <path d="m262.69 233.04q.24903 0 .35157.12451.10986.11718.10986.40283 0 .28564-.10986.41016-.10254.11718-.35157.11718h-5.7422q-.24903 0-.35889-.11718-.10254-.12452-.10254-.41016 0-.28565.10254-.40283.10986-.12451.35889-.12451h2.2925v-7.5h-1.9995q-.24902 0-.35888-.11719-.10254-.12451-.10254-.41016 0-.28564.10254-.40283.10986-.12451.35888-.12451h2.6367q.24903 0 .35157.11719.10986.10986.10986.38085v8.0566h2.3511z"/>
  <path d="m268.71 224.11q.40283 0 .54932.10987.14648.10254.14648.36621v.95215q0 .26367-.14648.37353-.14649.10254-.54932.10254t-.54932-.10254q-.14648-.10986-.14648-.37353v-.95215q0-.26367.14648-.36621.14-.11.54-.11zm.23438 3.2153q.24902 0 .35156.11719.10986.10987.10986.38086v5.2148h2.3511q.24902 0 .35156.12451.10986.11718.10986.40283 0 .28564-.10986.41016-.10254.11718-.35156.11718h-5.7422q-.24902 0-.35889-.11718-.10254-.12452-.10254-.41016 0-.28565.10254-.40283.10987-.12451.35889-.12451h2.2925v-4.6582h-1.853q-.24902 0-.35889-.11719-.10253-.12451-.10253-.41015 0-.28565.10253-.40283.10987-.12452.35889-.12452h2.4902z"/>
  <path d="m277.78 227.16q.78369 0 1.5015.20508.7251.20508 1.3403.60059.25635.16113.25635.41748 0 .16845-.10986.36621-.14649.30029-.38086.30029-.13916 0-.271-.0952-1.0327-.71045-2.3364-.71045-.70313 0-1.2451.31494-.53467.31494-.83496.8789-.29297.55664-.29297 1.2671 0 .71045.29297 1.2744.30029.55664.83496.87158.54199.31494 1.2451.31494.67383 0 1.3037-.20508.63721-.2124 1.1572-.60791.14648-.10986.27832-.10986.22705 0 .38818.27832.12451.2124.12451.38086 0 .2417-.23437.41016-.60059.43945-1.3989.68847-.79102.24903-1.6186.24903-1.0474 0-1.853-.46143-.79834-.46143-1.2378-1.2671-.43946-.80566-.43946-1.8164t.43946-1.8164q.43945-.80567 1.2378-1.2671.80566-.46143 1.853-.46143z"/>
  <path d="m286.73 227.16q1.062 0 1.8091.43213.74707.42481 1.1426 1.1792.40284.75439.46143 1.7505.0147.2417-.10254.35156-.10986.10254-.35889.10254h-5.3027q.0513 1.0913.61523 1.6553.56397.55664 1.5894.55664.73242 0 1.4282-.16845.70313-.16846 1.2085-.46143.12451-.0659.22705-.0659.13916 0 .24902.10987.11719.10254.18311.30029.0513.13184.0513.26367 0 .29297-.32227.44678-.59326.28564-1.3989.46142-.80567.17579-1.626.17579-1.062 0-1.8091-.42481-.74707-.4248-1.1353-1.2231-.38818-.79834-.38818-1.897 0-1.0474.43945-1.853.44678-.80567 1.2378-1.2451.79101-.44678 1.8018-.44678zm0 1.062q-.9082 0-1.5015.46143-.59326.4541-.77637 1.2671h4.5044q-.15381-.83496-.71778-1.2817-.55664-.44678-1.5088-.44678z"/>
  <path d="m296.49 227.16q1.106 0 1.7139.63721.60791.63721.60791 1.7505v4.1382q0 .25635-.12451.36621-.11719.10987-.41748.10987h-.0147q-.30029 0-.42481-.10987-.11718-.10986-.11718-.36621v-4.0283q0-.65918-.32959-1.0327-.32227-.38086-1.0034-.38086-.62988 0-1.2451.40283-.60791.39551-1.0034 1.084-.38818.68116-.38818 1.4868v2.4683q0 .25635-.12451.36621-.11719.10987-.41748.10987h-.0147q-.30029 0-.4248-.10987-.11719-.10986-.11719-.36621v-5.9619q0-.25635.10986-.36621.10986-.10987.39551-.10987h.0146q.28564 0 .39551.10987.10986.10986.10986.36621v1.1938q.49805-.76904 1.2671-1.2598.76904-.49805 1.5527-.49805z"/>
  <path d="m304.95 234.25q-1.8604 0-3.2007-.73243-.28564-.16113-.28564-.41748 0-.13916.0879-.32226.17578-.34424.39551-.34424.10986 0 .22705.0659.60058.33691 1.2891.51269.68848.17578 1.4136.17578.90088 0 1.3623-.30029.46875-.30762.46875-.82764 0-.24902-.15381-.40283-.14649-.16113-.43945-.25635-.24903-.0806-.58594-.12451-.33692-.0513-.86426-.10254-.71777-.0659-1.1719-.13916-.45411-.0732-.84229-.22705-.52002-.20508-.81299-.57861-.28564-.37354-.28564-.97412 0-.67383.35156-1.1426.35889-.47607.97412-.71045.62256-.2417 1.4136-.2417 1.6772 0 2.9443.63721.29297.14648.29297.41748 0 .14648-.0732.31494-.16846.36621-.39551.36621-.0732 0-.21973-.0659-1.1938-.60791-2.5049-.60791-.77637 0-1.2158.26368-.43945.26367-.43945.76904 0 .22705.14648.37353.14649.13916.41748.22705.2417.0806.54199.12452.3003.0366.84961.0879.68116.0586 1.1426.13183.46143.0659.85694.21241.56396.2124.8789.60791.32227.38818.32227 1.04 0 .65918-.32959 1.1572-.32959.49072-.98145.76172-.64453.271-1.5747.271z"/>
  <path d="m313.72 227.16q1.062 0 1.8091.43213.74707.42481 1.1426 1.1792.40283.75439.46142 1.7505.0146.2417-.10254.35156-.10986.10254-.35888.10254h-5.3027q.0513 1.0913.61524 1.6553.56396.55664 1.5894.55664.73242 0 1.4282-.16845.70313-.16846 1.2085-.46143.12451-.0659.22705-.0659.13916 0 .24902.10987.11719.10254.18311.30029.0513.13184.0513.26367 0 .29297-.32227.44678-.59326.28564-1.3989.46142-.80567.17579-1.626.17579-1.062 0-1.8091-.42481-.74707-.4248-1.1353-1.2231-.38818-.79834-.38818-1.897 0-1.0474.43945-1.853.44678-.80567 1.2378-1.2451.79101-.44678 1.8018-.44678zm0 1.062q-.90821 0-1.5015.46143-.59326.4541-.77637 1.2671h4.5044q-.15381-.83496-.71778-1.2817-.55664-.44678-1.5088-.44678z"/>
  <path d="m325.19 224.41q.30029 0 .41748.10986.12451.10986.12451.36621v8.8037q0 .25635-.10987.36621-.10986.10987-.3955.10987h-.0146q-.28565 0-.39551-.10987-.10986-.10986-.10986-.36621v-.68115q-.46143.60058-1.0693.92285-.60791.32227-1.3257.32227-.90821 0-1.626-.42481-.71045-.43213-1.1206-1.2305-.40284-.80566-.40284-1.8896 0-1.084.40284-1.8823.41015-.80566 1.1206-1.2305.71777-.43213 1.626-.43213 1.377 0 2.3218 1.2085v-3.4863q0-.25635.11718-.36621.12451-.10986.42481-.10986h.0147zm-2.8052 3.8379q-.65186 0-1.1279.31494-.46875.30761-.71777.87158-.24903.55664-.24903 1.2744 0 .71778.24903 1.2817.24902.55664.71777.87158.47607.30762 1.1279.30762.65186 0 1.1572-.29297.51269-.29297.79834-.84961.29297-.55664.29297-1.3184 0-.76171-.29297-1.3184-.28565-.55664-.79834-.8496-.50537-.29297-1.1572-.29297z"/>
 </g>
 <g transform="translate(-173.62 -173.62)">
  <path d="m227.63 275.78q.26367.0366.38086.13183.11719.0952.11719.27832 0 .0879-.007.13184l-1.0913 7.9028q-.0366.26367-.19043.36621-.14648.10987-.43945.10987-.56397 0-.73242-.47608l-1.5161-4.292-1.5161 4.292q-.16846.47608-.73242.47608-.29297 0-.44678-.10987-.14648-.10254-.1831-.36621l-1.0913-7.9028q-.007-.0439-.007-.13184 0-.1831.11719-.27832.11719-.0952.38086-.13183.0513-.007.14649-.007.21972 0 .32226.10254.10254.0952.13184.32227l.82031 6.4526 1.5161-4.2993q.0513-.14649.17578-.21973.13184-.0732.36621-.0732.23438 0 .35889.0732.13184.0732.18311.21973l1.5161 4.2993.82031-6.4526q.0293-.22705.13184-.32227.10254-.10254.32226-.10254.0952 0 .14649.007z"/>
  <path d="m233.24 277.61q1.062 0 1.8091.43213.74707.42481 1.1426 1.1792.40283.75439.46143 1.7505.0146.2417-.10254.35156-.10987.10254-.35889.10254h-5.3027q.0513 1.0913.61523 1.6553.56397.55664 1.5894.55664.73242 0 1.4282-.16845.70312-.16846 1.2085-.46143.12452-.0659.22706-.0659.13916 0 .24902.10987.11719.10254.1831.30029.0513.13184.0513.26367 0 .29297-.32226.44678-.59326.28564-1.3989.46142-.80566.17579-1.626.17579-1.062 0-1.8091-.42481-.74707-.4248-1.1352-1.2231-.38818-.79834-.38818-1.897 0-1.0474.43945-1.853.44678-.80567 1.2378-1.2451.79102-.44678 1.8018-.44678zm0 1.062q-.9082 0-1.5015.46143-.59327.4541-.77637 1.2671h4.5044q-.15381-.83496-.71777-1.2817-.55664-.44678-1.5088-.44678z"/>
  <path d="m245.17 283.49q.24903 0 .35156.12451.10987.11718.10987.40283 0 .28564-.10987.41016-.10253.11718-.35156.11718h-5.7422q-.24902 0-.35888-.11718-.10254-.12452-.10254-.41016 0-.28565.10254-.40283.10986-.12451.35888-.12451h2.2925v-7.5h-1.9995q-.24902 0-.35888-.11719-.10254-.12451-.10254-.41016 0-.28564.10254-.40283.10986-.12451.35888-.12451h2.6367q.24903 0 .35156.11719.10987.10986.10987.38085v8.0566h2.3511z"/>
  <path d="m254.17 283.49q.24903 0 .35157.12451.10986.11718.10986.40283 0 .28564-.10986.41016-.10254.11718-.35157.11718h-5.7422q-.24903 0-.35889-.11718-.10254-.12452-.10254-.41016 0-.28565.10254-.40283.10986-.12451.35889-.12451h2.2925v-7.5h-1.9995q-.24902 0-.35888-.11719-.10254-.12451-.10254-.41016 0-.28564.10254-.40283.10986-.12451.35888-.12451h2.6367q.24903 0 .35157.11719.10986.10986.10986.38085v8.0566h2.3511z"/>
  <path d="m271.26 277.61q.43213 0 .76904.21973.34424.2124.54199.65918.20508.43945.20508 1.084v4.563q0 .25635-.12451.36621-.11719.10987-.41748.10987h-.0147q-.30029 0-.4248-.10987-.11719-.10986-.11719-.36621v-4.4312q0-.50537-.16846-.7544-.16113-.25634-.52734-.25634-.34424 0-.63721.32226-.29297.31494-.46875.88623-.16845.56397-.16845 1.2891v2.9443q0 .25635-.12452.36621-.11718.10987-.41748.10987h-.0147q-.30029 0-.4248-.10987-.11719-.10986-.11719-.36621v-4.4312q0-.50537-.16845-.7544-.16114-.25634-.52735-.25634-.34424 0-.63721.32226-.29296.31494-.46875.88623-.16845.56397-.16845 1.2891v2.9443q0 .25635-.12451.36621-.11719.10987-.41748.10987h-.0146q-.3003 0-.42481-.10987-.11719-.10986-.11719-.36621v-5.9619q0-.25635.0952-.36621.10254-.10987.37353-.10987h.0147q.271 0 .36621.10987.10254.10986.10254.36621v.82031q.31494-.68848.7544-1.0327.43945-.35156.95215-.35156.49804 0 .87158.33692.37353.33691.50537.98877.65185-1.3257 1.6846-1.3257z"/>
  <path d="m278.32 277.61q1.377 0 2.0654.61524.68847.61523.68847 1.8237v4.0869q0 .25635-.10986.36621-.10986.10987-.39551.10987h-.0147q-.28564 0-.3955-.10987-.10987-.10986-.10987-.36621v-.49805q-.59326.50538-1.2891.7837-.68848.27832-1.4575.27832-.73242 0-1.2964-.24903-.56396-.25635-.8789-.73974-.31494-.4834-.31494-1.1499 0-1.1646.81298-1.7139.82032-.54932 2.124-.54932 1.1646 0 2.2266.37354v-.62256q0-.71045-.40283-1.04-.39551-.33692-1.2817-.33692-.54932 0-1.1426.15381-.59326.15381-1.1279.42481-.11719.0659-.22705.0659-.23437 0-.40283-.35157-.0806-.17578-.0806-.29297 0-.25634.271-.3955.61523-.32227 1.3184-.49073.71045-.17578 1.4209-.17578zm-.97412 6.0571q1.4575 0 2.6294-1.2085v-.79833q-.49805-.16114-1.0693-.2417-.57129-.0879-1.1499-.0879-.84228 0-1.333.29296-.48339.28565-.48339.91553 0 .53467.36621.83496.37353.29297 1.04.29297z"/>
  <path d="m287.17 274.56q.40283 0 .54932.10987.14648.10254.14648.36621v.95215q0 .26367-.14648.37353-.14649.10254-.54932.10254t-.54931-.10254q-.14649-.10986-.14649-.37353v-.95215q0-.26367.14649-.36621.14-.11.54-.11zm.23438 3.2153q.24902 0 .35156.11719.10986.10987.10986.38086v5.2148h2.3511q.24902 0 .35156.12451.10986.11718.10986.40283 0 .28564-.10986.41016-.10254.11718-.35156.11718h-5.7422q-.24902 0-.35889-.11718-.10254-.12452-.10254-.41016 0-.28565.10254-.40283.10987-.12451.35889-.12451h2.2925v-4.6582h-1.853q-.24902 0-.35888-.11719-.10254-.12451-.10254-.41015 0-.28565.10254-.40283.10986-.12452.35888-.12452h2.4902z"/>
  <path d="m296.96 277.61q1.106 0 1.7139.63721.60791.63721.60791 1.7505v4.1382q0 .25635-.12451.36621-.11719.10987-.41748.10987h-.0147q-.30029 0-.4248-.10987-.11719-.10986-.11719-.36621v-4.0283q0-.65918-.32959-1.0327-.32227-.38086-1.0034-.38086-.62988 0-1.2451.40283-.60791.39551-1.0034 1.084-.38818.68116-.38818 1.4868v2.4683q0 .25635-.12451.36621-.11719.10987-.41748.10987h-.0147q-.30029 0-.4248-.10987-.11719-.10986-.11719-.36621v-5.9619q0-.25635.10986-.36621.10986-.10987.39551-.10987h.0146q.28564 0 .39551.10987.10986.10986.10986.36621v1.1938q.49805-.76904 1.2671-1.2598.76904-.49805 1.5527-.49805z"/>
  <path d="m308.56 283.17q.0952.19043.0952.32959 0 .23438-.2417.38086-.57129.35889-1.2744.59327-.70313.22705-1.311.22705-1.2451 0-1.8237-.64454-.57129-.65185-.57129-1.9409v-2.7026h-1.4868q-.24903 0-.35889-.11719-.10254-.12451-.10254-.41015 0-.28565.10254-.40284.10986-.12451.35889-.12451h1.4868v-2.1973q0-.25635.12451-.36621.12452-.10987.42481-.10987t.4248.10987q.12452.10986.12452.36621v2.1973h3.0102q.24902 0 .35156.12451.10987.11719.10987.40284 0 .28564-.10987.41015-.10254.11719-.35156.11719h-3.0102v2.6074q0 .83496.29296 1.2232.29297.38818 1.0034.38818.49072 0 1.0327-.19775.54199-.19776 1.0474-.52735.10254-.0732.22705-.0732.24902 0 .42481.33691z"/>
  <path d="m314.3 277.61q1.377 0 2.0654.61524.68848.61523.68848 1.8237v4.0869q0 .25635-.10987.36621-.10986.10987-.39551.10987h-.0146q-.28565 0-.39551-.10987-.10987-.10986-.10987-.36621v-.49805q-.59326.50538-1.2891.7837-.68847.27832-1.4575.27832-.73242 0-1.2964-.24903-.56397-.25635-.87891-.73974-.31494-.4834-.31494-1.1499 0-1.1646.81299-1.7139.82031-.54932 2.124-.54932 1.1646 0 2.2266.37354v-.62256q0-.71045-.40283-1.04-.39551-.33692-1.2817-.33692-.54931 0-1.1426.15381-.59326.15381-1.1279.42481-.11718.0659-.22705.0659-.23437 0-.40283-.35157-.0806-.17578-.0806-.29297 0-.25634.27099-.3955.61524-.32227 1.3184-.49073.71045-.17578 1.4209-.17578zm-.97412 6.0571q1.4575 0 2.6294-1.2085v-.79833q-.49804-.16114-1.0693-.2417-.57129-.0879-1.1499-.0879-.84228 0-1.333.29296-.4834.28565-.4834.91553 0 .53467.36621.83496.37353.29297 1.04.29297z"/>
  <path d="m323.15 274.56q.40283 0 .54931.10987.14649.10254.14649.36621v.95215q0 .26367-.14649.37353-.14648.10254-.54931.10254-.40284 0-.54932-.10254-.14649-.10986-.14649-.37353v-.95215q0-.26367.14649-.36621.14-.11.54-.11zm.23437 3.2153q.24902 0 .35156.11719.10987.10987.10987.38086v5.2148h2.3511q.24902 0 .35156.12451.10987.11718.10987.40283 0 .28564-.10987.41016-.10254.11718-.35156.11718h-5.7422q-.24902 0-.35888-.11718-.10254-.12452-.10254-.41016 0-.28565.10254-.40283.10986-.12451.35888-.12451h2.2925v-4.6582h-1.853q-.24903 0-.35889-.11719-.10254-.12451-.10254-.41015 0-.28565.10254-.40283.10986-.12452.35889-.12452h2.4902z"/>
  <path d="m332.94 277.61q1.106 0 1.7139.63721.60791.63721.60791 1.7505v4.1382q0 .25635-.12451.36621-.11719.10987-.41748.10987h-.0147q-.30029 0-.4248-.10987-.11719-.10986-.11719-.36621v-4.0283q0-.65918-.32959-1.0327-.32227-.38086-1.0034-.38086-.62988 0-1.2451.40283-.60791.39551-1.0034 1.084-.38819.68116-.38819 1.4868v2.4683q0 .25635-.12451.36621-.11719.10987-.41748.10987h-.0147q-.30029 0-.4248-.10987-.11719-.10986-.11719-.36621v-5.9619q0-.25635.10986-.36621.10987-.10987.39551-.10987h.0147q.28564 0 .39551.10987.10986.10986.10986.36621v1.1938q.49805-.76904 1.2671-1.2598.76904-.49805 1.5527-.49805z"/>
  <path d="m341.17 277.61q1.062 0 1.8091.43213.74707.42481 1.1426 1.1792.40283.75439.46142 1.7505.0146.2417-.10254.35156-.10986.10254-.35888.10254h-5.3027q.0513 1.0913.61524 1.6553.56396.55664 1.5894.55664.73243 0 1.4282-.16845.70312-.16846 1.2085-.46143.12451-.0659.22705-.0659.13916 0 .24903.10987.11718.10254.1831.30029.0513.13184.0513.26367 0 .29297-.32226.44678-.59327.28564-1.3989.46142-.80566.17579-1.626.17579-1.062 0-1.8091-.42481-.74707-.4248-1.1352-1.2231-.38819-.79834-.38819-1.897 0-1.0474.43946-1.853.44677-.80567 1.2378-1.2451.79102-.44678 1.8018-.44678zm0 1.062q-.90821 0-1.5015.46143-.59326.4541-.77636 1.2671h4.5044q-.15381-.83496-.71777-1.2817-.55664-.44678-1.5088-.44678z"/>
  <path d="m352.65 274.86q.30029 0 .41748.10986.12451.10986.12451.36621v8.8037q0 .25635-.10986.36621-.10987.10987-.39551.10987h-.0147q-.28564 0-.39551-.10987-.10986-.10986-.10986-.36621v-.68115q-.46143.60058-1.0693.92285-.60791.32227-1.3257.32227-.9082 0-1.626-.42481-.71045-.43213-1.1206-1.2305-.40283-.80566-.40283-1.8896 0-1.084.40283-1.8823.41015-.80566 1.1206-1.2305.71778-.43213 1.626-.43213 1.377 0 2.3218 1.2085v-3.4863q0-.25635.11719-.36621.12451-.10986.4248-.10986h.0147zm-2.8052 3.8379q-.65185 0-1.1279.31494-.46875.30762-.71777.87158-.24902.55664-.24902 1.2744 0 .71778.24902 1.2817.24902.55664.71777.87158.47608.30762 1.1279.30762.65186 0 1.1572-.29297.51269-.29297.79834-.84961.29297-.55664.29297-1.3184 0-.76171-.29297-1.3184-.28565-.55664-.79834-.8496-.50537-.29297-1.1572-.29297z"/>
 </g>
 <g transform="translate(-173.62 -173.62)">
  <path d="m287.15 186.6q1.4282 0 2.4292.51269 1.001.50049 1.5015 1.4038.5127.90332.5127 2.0996 0 .96436-.42725 1.6968-.42724.72021-1.2085 1.1719 1.1719.43946 1.8066 1.3306.63476.87891.63476 2.1728 0 1.2817-.54931 2.2095-.54932.91553-1.5991 1.4038-1.0498.48828-2.5391.48828h-5.1514q-.41504 0-.59815-.1831-.1709-.19532-.1709-.64698v-12.83q0-.45166.1709-.63476.18311-.19531.59815-.19531h4.5898zm-3.5278 1.7578v4.4922h3.2593q1.4038 0 2.1118-.57373.72022-.58594.72022-1.6602 0-2.2583-2.832-2.2583h-3.2593zm0 6.25v4.7241h3.8452q1.4526 0 2.2461-.58594.80566-.59814.80566-1.7578 0-1.1963-.79346-1.7822-.78125-.59814-2.3193-.59814h-3.7842z"/>
  <path d="m302.07 189.54q2.2949 0 3.4424 1.0254t1.1475 3.0396v6.8115q0 .42724-.1831.61035-.18311.1831-.65918.1831h-.0244q-.47608 0-.65918-.1831-.18311-.18311-.18311-.61035v-.83008q-.98877.84228-2.1484 1.3062-1.1475.46387-2.4292.46387-1.2207 0-2.1606-.41504-.93994-.42725-1.4648-1.2329-.52491-.80567-.52491-1.9165 0-1.9409 1.355-2.8564 1.3672-.91553 3.54-.91553 1.9409 0 3.7109.62256v-1.0376q0-1.1841-.67139-1.7334-.65918-.56152-2.1362-.56152-.91552 0-1.9043.25635-.98877.25635-1.8799.70801-.19531.10986-.37841.10986-.39063 0-.67139-.58594-.13428-.29297-.13428-.48828 0-.42725.45166-.65918 1.0254-.53711 2.1973-.81787 1.1841-.29297 2.3682-.29297zm-1.6235 10.095q2.4292 0 4.3823-2.0142v-1.3306q-.83008-.26856-1.7822-.40283-.95214-.14649-1.9165-.14649-1.4038 0-2.2217.48828-.80566.47608-.80566 1.5259 0 .89112.61035 1.3916.62256.48829 1.7334.48829z"/>
  <path d="m317.26 201.36q-3.1006 0-5.3345-1.2207-.47608-.26855-.47608-.6958 0-.23193.14649-.53711.29296-.57373.65918-.57373.1831 0 .37841.10987 1.001.56152 2.1484.85449 1.1475.29297 2.356.29297 1.5015 0 2.2705-.50049.78125-.5127.78125-1.3794 0-.41504-.25635-.67139-.24414-.26856-.73242-.42725-.41504-.13427-.97657-.20752-.56152-.0855-1.4404-.1709-1.1963-.10986-1.9531-.23193-.75684-.12207-1.4038-.37842-.8667-.34179-1.355-.96435-.47607-.62256-.47607-1.6235 0-1.123.58593-1.9043.59815-.79346 1.6235-1.1841 1.0376-.40283 2.356-.40283 2.7954 0 4.9072 1.062.48828.24414.48828.6958 0 .24414-.12207.52491-.28076.61035-.65918.61035-.12207 0-.36621-.10987-1.9897-1.0132-4.1748-1.0132-1.294 0-2.0264.43945-.73242.43946-.73242 1.2817 0 .37842.24414.62256.24414.23193.6958.37842.40283.13428.90332.20752.50049.061 1.416.14648 1.1352.0977 1.9043.21973.76905.10986 1.4282.354.93994.35401 1.4648 1.0132.53711.64697.53711 1.7334 0 1.0986-.54932 1.9287-.54931.81787-1.6357 1.2695-1.0742.45166-2.6245.45166z"/>
  <path d="m331.81 184.45q.67139 0 .91553.1831.24414.1709.24414.61036v1.5869q0 .43945-.24414.62256-.24414.1709-.91553.1709t-.91553-.1709q-.24414-.18311-.24414-.62256v-1.5869q0-.43946.24414-.61036.24414-.1831.91553-.1831zm.39062 5.3589q.41504 0 .58594.19531.18311.1831.18311.63476v8.6914h3.9184q.41504 0 .58594.20752.18311.19531.18311.67139 0 .47607-.18311.68359-.1709.19531-.58594.19531h-9.5703q-.41504 0-.59814-.19531-.1709-.20752-.1709-.68359 0-.47608.1709-.67139.1831-.20752.59814-.20752h3.8208v-7.7637h-3.0884q-.41504 0-.59814-.19531-.1709-.20752-.1709-.6836 0-.47607.1709-.67138.1831-.20752.59814-.20752h4.1504z"/>
  <path d="m346.93 189.54q1.3062 0 2.5024.3418 1.2085.3418 2.2339 1.001.42725.26856.42725.69581 0 .28076-.18311.61035-.24414.50049-.63477.50049-.23193 0-.45166-.1587-1.7212-1.1841-3.894-1.1841-1.1719 0-2.0752.5249-.89112.52491-1.3916 1.4648-.48828.92773-.48828 2.1118t.48828 2.124q.50049.92773 1.3916 1.4526.90332.52491 2.0752.52491 1.123 0 2.1728-.3418 1.062-.354 1.9287-1.0132.24414-.18311.46387-.18311.37842 0 .64697.46387.20752.354.20752.63476 0 .40284-.39062.6836-1.001.73242-2.3316 1.1475-1.3184.41504-2.6978.41504-1.7456 0-3.0884-.76905-1.3306-.76904-2.063-2.1118-.73242-1.3428-.73242-3.0274t.73242-3.0273q.73243-1.3428 2.063-2.1118 1.3428-.76904 3.0884-.76904z"/>
 </g>
 <g transform="translate(-271.6 -89.904)">
  <path style="color-rendering:auto;color:#000000;isolation:auto;mix-blend-mode:normal;shape-rendering:auto;solid-color:#000000;image-rendering:auto;stroke-width:0;fill:#00ae41" d="m289.85 93.447c-5.727-.04352-11.258 3.5716-13.489 8.8515-2.3711 5.2784-1.2036 11.873 2.8286 16.023 3.9393 4.2348 10.467 5.7354 15.859 3.634 5.5262-2.0093 9.4863-7.5931 9.5264-13.477.19834-5.8306-3.4662-11.532-8.8386-13.8-1.8543-.80699-3.866-1.2119-5.8871-1.2304z"/>
  <g style="fill:#31343d" transform="matrix(.014242 .0011635 -.0011635 .014242 280.68 100.54)">
   <path style="fill:#31343d" d="m465 950c-3-5 17-83 45-172 29-90 65-203 80-253 128-405 154-483 166-502 13-20 23-23 83-23 46 0 70 4 73 13 7 17-271 908-290 930-11 13-31 17-83 17-37 0-71-4-74-10z"/>
   <path style="fill:#31343d" d="m255 788c-27-17-75-45-105-61-30-17-73-42-95-56l-40-27-3-91-3-91 33-25c45-32 463-267 477-267 15 0 15 1-15 101-15 49-36 97-48 108s-77 52-146 91-129 75-133 79 33 31 83 60c49 29 94 60 99 69 11 21-25 142-42 142-7 0-34-15-62-32z"/>
   <path style="fill:#31343d" d="m840 803c0-30 56-180 73-197 12-12 79-55 150-95 70-40 127-76 127-79 0-4-24-20-53-36-94-53-137-86-137-107 0-27 30-118 42-125 10-6 273 141 300 169 26 25 26 177 1 199-34 29-474 278-492 278-6 0-11-3-11-7z"/>
  </g>
 </g>
 <g transform="translate(-261.28 -133.48)">
  <path d="m306.44 160.84v-17.75h3.725v14.45h7.25v3.3h-10.975z"/>
  <path d="m324.49 161.21q-1.4 0-2.55-.45-1.125-.45-1.925-1.275-.775-.825-1.075-1.95l3.15-.675q.25.775.9 1.225t1.55.45q.85 0 1.4-.375t.55-1.025q0-.55-.5-.9-.475-.375-1.6-.575l-.7-.125q-2.15-.375-3.275-1.4-1.1-1.025-1.1-2.6 0-1.25.65-2.2.65-.975 1.8-1.525t2.65-.55q1.325 0 2.4.45 1.1.425 1.825 1.225t1 1.925l-3.125.65q-.25-.75-.825-1.175-.55-.425-1.3-.425-.775 0-1.275.375t-.5.95q0 .5.475.85.5.325 1.675.525l.7.125q2.125.375 3.25 1.425 1.125 1.025 1.125 2.625 0 .975-.4 1.775-.375.8-1.1 1.4t-1.7.925-2.15.325z"/>
  <path d="m338.35 161.21q-1.475 0-2.725-.525t-2.175-1.45q-.925-.95-1.45-2.225-.5-1.275-.5-2.775t.525-2.75q.525-1.275 1.45-2.225.95-.95 2.2-1.475 1.275-.525 2.775-.525 1.475 0 2.725.525t2.175 1.475q.925.925 1.425 2.2.525 1.25.525 2.75t-.525 2.775-1.475 2.225q-.925.95-2.2 1.475-1.25.525-2.75.525zm.05-3.15q.95 0 1.7-.5t1.175-1.35q.45-.875.45-1.975t-.45-1.95q-.425-.875-1.175-1.375t-1.7-.5-1.7.5-1.2 1.375q-.425.85-.425 1.95t.425 1.975q.45.85 1.2 1.35t1.7.5z"/>
  <path d="m352.33 161.21q-1.4 0-2.55-.45-1.125-.45-1.925-1.275-.775-.825-1.075-1.95l3.15-.675q.25.775.9 1.225t1.55.45q.85 0 1.4-.375t.55-1.025q0-.55-.5-.9-.475-.375-1.6-.575l-.7-.125q-2.15-.375-3.275-1.4-1.1-1.025-1.1-2.6 0-1.25.65-2.2.65-.975 1.8-1.525t2.65-.55q1.325 0 2.4.45 1.1.425 1.825 1.225t1 1.925l-3.125.65q-.25-.75-.825-1.175-.55-.425-1.3-.425-.775 0-1.275.375t-.5.95q0 .5.475.85.5.325 1.675.525l.7.125q2.125.375 3.25 1.425 1.125 1.025 1.125 2.625 0 .975-.4 1.775-.375.8-1.1 1.4t-1.7.925-2.15.325z"/>
 </g>
 <g transform="translate(-173.62 -173.62)">
  <path d="m225.88 250.7q.24903 0 .35157.12451.10986.11719.10986.40283 0 .28565-.10986.41016-.10254.11719-.35157.11719h-4.2627v2.9224h3.4204q.24902 0 .35156.12451.10986.11719.10986.40283 0 .28565-.10986.41016-.10254.11719-.35156.11719h-3.4204v3.2593q0 .25635-.12451.36621-.11719.10987-.41748.10987h-.0146q-.30029 0-.42481-.10987-.11718-.10986-.11718-.36621v-7.793q0-.27099.10986-.38085.11719-.11719.35156-.11719h4.8999z"/>
  <path d="m234.35 252.46q.47608 0 .95947.15381.35889.11719.35889.46875 0 .11719-.0293.22705-.0659.2417-.16113.36621-.0879.11719-.22705.11719-.0806 0-.16113-.0293-.41016-.13184-.80567-.13184-.84228 0-1.582.51269-.73974.5127-1.1865 1.3843-.44678.86426-.44678 1.8823v1.5747q0 .25635-.12451.36621-.11719.10987-.41748.10987h-.0147q-.30029 0-.4248-.10987-.11719-.10986-.11719-.36621v-5.9619q0-.25635.10986-.36621t.39551-.10986h.0146q.28564 0 .39551.10986.10986.10986.10986.36621v1.7212q.63721-1.0767 1.5088-1.6772.87158-.60791 1.8457-.60791z"/>
  <path d="m241.28 252.46q1.062 0 1.8091.43213.74707.42481 1.1426 1.1792.40283.7544.46143 1.7505.0147.2417-.10254.35156-.10986.10254-.35889.10254h-5.3027q.0513 1.0913.61523 1.6553.56397.55664 1.5894.55664.73242 0 1.4282-.16846.70313-.16846 1.2085-.46143.12451-.0659.22705-.0659.13916 0 .24902.10986.11719.10254.18311.30029.0513.13184.0513.26367 0 .29297-.32227.44678-.59326.28565-1.3989.46143-.80566.17578-1.626.17578-1.062 0-1.8091-.42481-.74707-.4248-1.1353-1.2231-.38818-.79834-.38818-1.897 0-1.0474.43945-1.853.44678-.80567 1.2378-1.2451.79102-.44678 1.8018-.44678zm0 1.062q-.9082 0-1.5015.46142-.59326.4541-.77637 1.2671h4.5044q-.1538-.83496-.71777-1.2817-.55664-.44677-1.5088-.44677z"/>
  <path d="m250.27 252.46q1.062 0 1.8091.43213.74707.42481 1.1426 1.1792.40283.7544.46143 1.7505.0146.2417-.10254.35156-.10986.10254-.35889.10254h-5.3027q.0513 1.0913.61523 1.6553.56397.55664 1.5894.55664.73242 0 1.4282-.16846.70313-.16846 1.2085-.46143.12451-.0659.22705-.0659.13916 0 .24902.10986.11719.10254.18311.30029.0513.13184.0513.26367 0 .29297-.32227.44678-.59326.28565-1.3989.46143-.80566.17578-1.626.17578-1.062 0-1.8091-.42481-.74707-.4248-1.1353-1.2231-.38818-.79834-.38818-1.897 0-1.0474.43945-1.853.44678-.80567 1.2378-1.2451.79102-.44678 1.8018-.44678zm0 1.062q-.9082 0-1.5015.46142-.59326.4541-.77637 1.2671h4.5044q-.15381-.83496-.71778-1.2817-.55664-.44677-1.5088-.44677z"/>
  <path d="m271.5 250.12q.35889.13916.35889.47608 0 .0586-.0293.20508-.10254.41015-.38086.41015-.0659 0-.16113-.0366-.93018-.35888-1.7358-.35888-1.4795 0-1.4795 1.5894v.80566h2.5342q.24902 0 .35156.12452.10986.11718.10986.40283 0 .28564-.10986.41015-.10254.11719-.35156.11719h-2.5342v4.7241q0 .25635-.12451.36621-.11719.10987-.41748.10987h-.0147q-.3003 0-.42481-.10987-.11718-.10986-.11718-.36621v-4.7241h-1.4502q-.24902 0-.35889-.11719-.10254-.12451-.10254-.41015 0-.28565.10254-.40283.10987-.12452.35889-.12452h1.4502v-.90087q0-1.2085.67382-1.8823.68116-.68115 1.9043-.68115.98145 0 1.9482.37353z"/>
  <path d="m277.19 252.46q.99609 0 1.7944.45411.80566.4541 1.2598 1.2671.46142.80566.46142 1.8237 0 1.0181-.46142 1.831-.45411.80567-1.2598 1.2598-.79834.4541-1.7944.4541-.9961 0-1.8018-.4541-.79834-.4541-1.2598-1.2598-.4541-.81299-.4541-1.831 0-1.0181.4541-1.8237.46143-.81299 1.2598-1.2671.80566-.45411 1.8018-.45411zm0 1.084q-.71045 0-1.2524.31494-.542.30762-.84229.87158-.29297.55664-.29297 1.2744 0 .71777.29297 1.2817.30029.55665.84229.87159.54199.30761 1.2524.30761.71045 0 1.2524-.30761.54199-.31494.83496-.87159.30029-.56396.30029-1.2817 0-.71778-.30029-1.2744-.29297-.56396-.83496-.87158-.54199-.31494-1.2524-.31494z"/>
  <path d="m288.31 252.46q.47608 0 .95948.15381.35888.11719.35888.46875 0 .11719-.0293.22705-.0659.2417-.16114.36621-.0879.11719-.22705.11719-.0806 0-.16113-.0293-.41016-.13184-.80566-.13184-.84229 0-1.582.51269-.73975.5127-1.1865 1.3843-.44678.86426-.44678 1.8823v1.5747q0 .25635-.12451.36621-.11718.10987-.41748.10987h-.0147q-.30029 0-.4248-.10987-.11719-.10986-.11719-.36621v-5.9619q0-.25635.10987-.36621.10986-.10986.3955-.10986h.0147q.28565 0 .39551.10986t.10986.36621v1.7212q.63721-1.0767 1.5088-1.6772.87158-.60791 1.8457-.60791z"/>
  <path d="m306.28 252.46q.43213 0 .76905.21973.34423.2124.54199.65918.20508.43945.20508 1.084v4.563q0 .25635-.12452.36621-.11718.10987-.41748.10987h-.0146q-.3003 0-.42481-.10987-.11719-.10986-.11719-.36621v-4.4312q0-.50537-.16845-.75439-.16114-.25635-.52735-.25635-.34424 0-.6372.32226-.29297.31495-.46875.88623-.16846.56397-.16846 1.2891v2.9443q0 .25635-.12451.36621-.11719.10987-.41748.10987h-.0147q-.30029 0-.42481-.10987-.11718-.10986-.11718-.36621v-4.4312q0-.50537-.16846-.75439-.16113-.25635-.52734-.25635-.34424 0-.63721.32226-.29297.31495-.46875.88623-.16846.56397-.16846 1.2891v2.9443q0 .25635-.12451.36621-.11719.10987-.41748.10987h-.0147q-.30029 0-.4248-.10987-.11719-.10986-.11719-.36621v-5.9619q0-.25635.0952-.36621.10254-.10986.37354-.10986h.0147q.27099 0 .36621.10986.10254.10986.10254.36621v.82031q.31494-.68847.75439-1.0327.43945-.35157.95215-.35157.49805 0 .87158.33692.37354.33691.50537.98877.65186-1.3257 1.6846-1.3257z"/>
  <path d="m313.16 252.46q.99609 0 1.7944.45411.80567.4541 1.2598 1.2671.46142.80566.46142 1.8237 0 1.0181-.46142 1.831-.4541.80567-1.2598 1.2598-.79834.4541-1.7944.4541-.99609 0-1.8018-.4541-.79834-.4541-1.2598-1.2598-.45411-.81299-.45411-1.831 0-1.0181.45411-1.8237.46142-.81299 1.2598-1.2671.80567-.45411 1.8018-.45411zm0 1.084q-.71045 0-1.2524.31494-.54199.30762-.84229.87158-.29297.55664-.29297 1.2744 0 .71777.29297 1.2817.3003.55665.84229.87159.54199.30761 1.2524.30761.71045 0 1.2524-.30761.54199-.31494.83496-.87159.30029-.56396.30029-1.2817 0-.71778-.30029-1.2744-.29297-.56396-.83496-.87158-.54199-.31494-1.2524-.31494z"/>
  <path d="m322.45 259.55q-1.8604 0-3.2007-.73242-.28564-.16114-.28564-.41748 0-.13916.0879-.32227.17578-.34424.39551-.34424.10986 0 .22705.0659.60059.33691 1.2891.5127.68848.17578 1.4136.17578.90088 0 1.3623-.3003.46875-.30761.46875-.82763 0-.24903-.15381-.40284-.14648-.16113-.43945-.25634-.24902-.0806-.58594-.12451-.33691-.0513-.86426-.10254-.71777-.0659-1.1719-.13916-.4541-.0733-.84229-.22705-.52002-.20508-.81298-.57862-.28565-.37353-.28565-.97412 0-.67383.35156-1.1426.35889-.47607.97412-.71045.62256-.2417 1.4136-.2417 1.6772 0 2.9443.63721.29297.14649.29297.41748 0 .14649-.0732.31494-.16846.36621-.39551.36621-.0732 0-.21972-.0659-1.1938-.60791-2.5049-.60791-.77636 0-1.2158.26367-.43945.26367-.43945.76904 0 .22705.14648.37354.14649.13916.41749.22705.24169.0806.54199.12451.30029.0366.84961.0879.68115.0586 1.1426.13184.46142.0659.85693.2124.56396.2124.8789.60791.32227.38818.32227 1.04 0 .65918-.32959 1.1572-.32959.49073-.98144.76172-.64454.271-1.5747.271z"/>
  <path d="m334.59 258.02q.0952.19043.0952.32959 0 .23437-.2417.38086-.57128.35888-1.2744.59326-.70312.22705-1.311.22705-1.2451 0-1.8237-.64453-.57128-.65186-.57128-1.9409v-2.7026h-1.4868q-.24902 0-.35889-.11719-.10254-.12451-.10254-.41015 0-.28565.10254-.40283.10987-.12452.35889-.12452h1.4868v-2.1973q0-.25635.12451-.36621.12451-.10987.4248-.10987.3003 0 .42481.10987.12451.10986.12451.36621v2.1973h3.0102q.24903 0 .35156.12452.10987.11718.10987.40283 0 .28564-.10987.41015-.10253.11719-.35156.11719h-3.0102v2.6074q0 .83497.29297 1.2232.29297.38818 1.0034.38818.49072 0 1.0327-.19775.54199-.19776 1.0474-.52735.10254-.0732.22705-.0732.24903 0 .42481.33692z"/>
  <path d="m351.62 252.55q.30029 0 .41748.10986.12451.10986.12451.36621v5.9619q0 .25635-.10986.36621-.10987.10987-.39551.10987h-.0147q-.28564 0-.39551-.10987-.10986-.10986-.10986-.36621v-1.1938q-.49805.76904-1.2671 1.2671-.76904.49072-1.5527.49072-1.106 0-1.7139-.63721-.60791-.63721-.60791-1.7505v-4.1382q0-.25635.11718-.36621.12452-.10986.42481-.10986h.0147q.30029 0 .41748.10986.12451.10986.12451.36621v4.0283q0 .65918.32227 1.04.32959.37353 1.0107.37353.62988 0 1.2378-.3955.61524-.40284 1.0034-1.084.39551-.68847.39551-1.4941v-2.4683q0-.25635.11718-.36621.12452-.10986.42481-.10986h.0146z"/>
  <path d="m358.43 259.55q-1.8604 0-3.2007-.73242-.28565-.16114-.28565-.41748 0-.13916.0879-.32227.17578-.34424.39551-.34424.10986 0 .22705.0659.60059.33691 1.2891.5127.68848.17578 1.4136.17578.90088 0 1.3623-.3003.46875-.30761.46875-.82763 0-.24903-.15381-.40284-.14648-.16113-.43945-.25634-.24902-.0806-.58594-.12451-.33691-.0513-.86425-.10254-.71778-.0659-1.1719-.13916-.4541-.0733-.84228-.22705-.52002-.20508-.81299-.57862-.28565-.37353-.28565-.97412 0-.67383.35157-1.1426.35888-.47607.97412-.71045.62256-.2417 1.4136-.2417 1.6772 0 2.9443.63721.29297.14649.29297.41748 0 .14649-.0732.31494-.16845.36621-.3955.36621-.0732 0-.21973-.0659-1.1938-.60791-2.5049-.60791-.77637 0-1.2158.26367-.43946.26367-.43946.76904 0 .22705.14649.37354.14648.13916.41748.22705.2417.0806.54199.12451.30029.0366.84961.0879.68115.0586 1.1426.13184.46142.0659.85693.2124.56397.2124.87891.60791.32226.38818.32226 1.04 0 .65918-.32959 1.1572-.32959.49073-.98144.76172-.64453.271-1.5747.271z"/>
  <path d="m367.19 252.46q1.062 0 1.8091.43213.74707.42481 1.1426 1.1792.40283.7544.46143 1.7505.0146.2417-.10254.35156-.10987.10254-.35889.10254h-5.3027q.0513 1.0913.61523 1.6553.56397.55664 1.5894.55664.73242 0 1.4282-.16846.70312-.16846 1.2085-.46143.12451-.0659.22705-.0659.13916 0 .24902.10986.11719.10254.1831.30029.0513.13184.0513.26367 0 .29297-.32226.44678-.59326.28565-1.3989.46143-.80566.17578-1.626.17578-1.062 0-1.8091-.42481-.74707-.4248-1.1352-1.2231-.38818-.79834-.38818-1.897 0-1.0474.43945-1.853.44678-.80567 1.2378-1.2451.79102-.44678 1.8018-.44678zm0 1.062q-.9082 0-1.5015.46142-.59327.4541-.77637 1.2671h4.5044q-.15381-.83496-.71777-1.2817-.55664-.44677-1.5088-.44677z"/>
  <path d="m378.25 252.46q.47608 0 .95947.15381.35889.11719.35889.46875 0 .11719-.0293.22705-.0659.2417-.16113.36621-.0879.11719-.22705.11719-.0806 0-.16113-.0293-.41016-.13184-.80567-.13184-.84228 0-1.582.51269-.73974.5127-1.1865 1.3843-.44678.86426-.44678 1.8823v1.5747q0 .25635-.12451.36621-.11719.10987-.41748.10987h-.0147q-.30029 0-.4248-.10987-.11719-.10986-.11719-.36621v-5.9619q0-.25635.10986-.36621t.39551-.10986h.0146q.28564 0 .39551.10986.10986.10986.10986.36621v1.7212q.63721-1.0767 1.5088-1.6772.87158-.60791 1.8457-.60791z"/>
  <path d="m385.41 259.55q-1.8604 0-3.2007-.73242-.28565-.16114-.28565-.41748 0-.13916.0879-.32227.17578-.34424.3955-.34424.10987 0 .22705.0659.60059.33691 1.2891.5127.68847.17578 1.4136.17578.90088 0 1.3623-.3003.46875-.30761.46875-.82763 0-.24903-.15381-.40284-.14649-.16113-.43946-.25634-.24902-.0806-.58593-.12451-.33692-.0513-.86426-.10254-.71778-.0659-1.1719-.13916-.4541-.0733-.84228-.22705-.52002-.20508-.81299-.57862-.28564-.37353-.28564-.97412 0-.67383.35156-1.1426.35888-.47607.97412-.71045.62256-.2417 1.4136-.2417 1.6772 0 2.9443.63721.29297.14649.29297.41748 0 .14649-.0732.31494-.16846.36621-.39551.36621-.0732 0-.21973-.0659-1.1938-.60791-2.5049-.60791-.77637 0-1.2158.26367-.43946.26367-.43946.76904 0 .22705.14649.37354.14648.13916.41748.22705.2417.0806.54199.12451.30029.0366.84961.0879.68115.0586 1.1426.13184.46143.0659.85693.2124.56397.2124.87891.60791.32226.38818.32226 1.04 0 .65918-.32958 1.1572-.32959.49073-.98145.76172-.64453.271-1.5747.271z"/>
 </g>
 <g transform="translate(-268.52 -133.48)">
  <path style="fill:#00ae41;image-rendering:optimizeQuality;shape-rendering:geometricPrecision" d="m284.2 217.3 7.2168-7.239c1.2028-1.2028 3.0515.64595 1.8487 1.8487l-8.1523 8.1523c-.5123.5123-1.3364.5123-1.8487 0l-2.9847-3.007c-1.2028-1.2028.62368-3.0515 1.8487-1.8265l2.06 2.08z"/>
  <path style="stroke-width:.1;image-rendering:optimizeQuality;shape-rendering:geometricPrecision" d="m292.67 206.57h-11.805c-1.4255 0-2.5838 1.1582-2.5838 2.5838v11.805c0 1.4255 1.1582 2.5838 2.5838 2.5838h11.805c1.4255 0 2.5838-1.1582 2.5838-2.5838v-11.805c0-1.4255-1.1582-2.5838-2.5838-2.5838zm-11.805-.42321h11.805c1.6706 0 3.0293 1.3587 3.0293 3.007v11.805c0 1.6706-1.3587 3.0293-3.0293 3.0293h-11.805c-1.6483 0-3.007-1.3587-3.007-3.0293v-11.805c0-1.6483 1.3587-3.007 3.007-3.007z"/>
 </g>
 <g transform="translate(-269.89 -133.48)">
  <path style="fill:#00ae41;image-rendering:optimizeQuality;shape-rendering:geometricPrecision" d="m285.57 191.58 7.2168-7.239c1.2028-1.2028 3.0515.64595 1.8487 1.8487l-8.1523 8.1523c-.5123.5123-1.3364.5123-1.8487 0l-2.9847-3.007c-1.2028-1.2028.62368-3.0515 1.8487-1.8265l2.0715 2.0715z"/>
  <path style="stroke-width:.1;image-rendering:optimizeQuality;shape-rendering:geometricPrecision" d="m294.04 180.84h-11.805c-1.4255 0-2.5838 1.1582-2.5838 2.5838v11.805c0 1.4255 1.1582 2.5838 2.5838 2.5838h11.805c1.4255 0 2.5838-1.1582 2.5838-2.5838v-11.805c0-1.4255-1.1582-2.5838-2.5838-2.5838zm-11.805-.42321h11.805c1.6706 0 3.0293 1.3587 3.0293 3.007v11.805c0 1.6706-1.3587 3.0293-3.0293 3.0293h-11.805c-1.6483 0-3.007-1.3587-3.007-3.0293v-11.805c0-1.6483 1.3587-3.007 3.007-3.007z"/>
 </g>
 <g transform="translate(-268.83 -139.84)">
  <path style="fill:#00ae41;image-rendering:optimizeQuality;shape-rendering:geometricPrecision" d="m284.51 248.85 7.2168-7.239c1.2028-1.2028 3.0515.64595 1.8487 1.8487l-8.1523 8.1523c-.5123.5123-1.3364.5123-1.8487 0l-2.9847-3.007c-1.2028-1.2028.62368-3.0515 1.8487-1.8265l2.0715 2.0715z"/>
  <path style="stroke-width:.1;image-rendering:optimizeQuality;shape-rendering:geometricPrecision" d="m292.98 238.12h-11.805c-1.4255 0-2.5838 1.1582-2.5838 2.5838v11.805c0 1.4255 1.1582 2.5838 2.5838 2.5838h11.805c1.4255 0 2.5838-1.1582 2.5838-2.5838v-11.805c0-1.4255-1.1582-2.5838-2.5838-2.5838zm-11.805-.42321h11.805c1.6706 0 3.0293 1.3587 3.0293 3.007v11.805c0 1.6706-1.3587 3.0293-3.0293 3.0293h-11.805c-1.6483 0-3.007-1.3587-3.007-3.0293v-11.805c0-1.6483 1.3587-3.007 3.007-3.007z"/>
 </g>
</svg>
